<svg width="132" height="47" viewBox="0 0 132 47" fill="none" xmlns="http://www.w3.org/2000/svg">
<g clip-path="url(#clip0_201_36)">
<g clip-path="url(#clip1_201_36)">
<path fill-rule="evenodd" clip-rule="evenodd" d="M17.0542 5.49414C7.70944 5.49414 0.140625 12.9691 0.140625 22.1979C0.140625 29.5893 4.98213 35.8323 11.7053 38.0456C12.5509 38.1917 12.8681 37.6906 12.8681 37.2521C12.8681 36.8554 12.8469 35.54 12.8469 34.1411C8.5974 34.9136 7.49802 33.118 7.15975 32.1784C6.96947 31.6981 6.14494 30.2157 5.42611 29.819C4.83414 29.5058 3.98846 28.7332 5.40497 28.7123C6.73691 28.6915 7.6883 29.9234 8.00543 30.4245C9.52765 32.9509 11.959 32.241 12.9315 31.8025C13.0795 30.7168 13.5235 29.986 14.0097 29.5684C10.2465 29.1508 6.31407 27.7101 6.31407 21.3209C6.31407 19.5044 6.96947 18.0011 8.04771 16.8318C7.87857 16.4142 7.2866 14.7021 8.21685 12.4053C8.21685 12.4053 9.63336 11.9668 12.8681 14.1174C14.2212 13.7416 15.6588 13.5537 17.0965 13.5537C18.5341 13.5537 19.9718 13.7416 21.3248 14.1174C24.5596 11.946 25.9761 12.4053 25.9761 12.4053C26.9063 14.7021 26.3143 16.4142 26.1452 16.8318C27.2234 18.0011 27.8788 19.4835 27.8788 21.3209C27.8788 27.731 23.9253 29.1508 20.162 29.5684C20.7752 30.0904 21.3037 31.0926 21.3037 32.6586C21.3037 34.8927 21.2826 36.6884 21.2826 37.2521C21.2826 37.6906 21.5997 38.2126 22.4454 38.0456C25.803 36.9261 28.7207 34.795 30.7876 31.9521C32.8546 29.1092 33.9668 25.6977 33.9677 22.1979C33.9677 12.9691 26.3989 5.49414 17.0542 5.49414Z" fill="black"/>
<path d="M78.9888 30.2604H78.9493C78.9671 30.2604 78.9789 30.2799 78.9967 30.2818H79.0085L78.9888 30.2623V30.2604ZM78.9967 30.2818C78.8132 30.2837 78.3514 30.3792 77.864 30.3792C76.3249 30.3792 75.7921 29.6777 75.7921 28.7618V22.6602H78.9296C79.1072 22.6602 79.2453 22.5043 79.2453 22.2899V18.977C79.2453 18.8016 79.0874 18.6457 78.9296 18.6457H75.7921V14.5338C75.7921 14.3779 75.6935 14.2804 75.5159 14.2804H71.2537C71.0761 14.2804 70.9774 14.3779 70.9774 14.5338V18.7626C70.9774 18.7626 68.8266 19.2888 68.6884 19.3083C68.5306 19.3472 68.4319 19.4837 68.4319 19.6396V22.2899C68.4319 22.5043 68.5898 22.6602 68.7674 22.6602H70.9577V29.0521C70.9577 33.8071 74.3122 34.2943 76.6012 34.2943C77.647 34.2943 78.9099 33.963 79.1072 33.8656C79.2256 33.8266 79.2848 33.6902 79.2848 33.5538V30.6306C79.2875 30.5477 79.2598 30.4666 79.2069 30.4022C79.154 30.3378 79.0794 30.2943 78.9967 30.2799V30.2818ZM125.755 25.9926C125.755 22.4653 124.314 21.9976 122.795 22.1535C121.611 22.2314 120.664 22.8161 120.664 22.8161V29.6757C120.664 29.6757 121.631 30.3383 123.071 30.3773C125.104 30.4358 125.755 29.7147 125.755 25.9926ZM130.55 25.6808C130.55 32.365 128.359 34.2748 124.531 34.2748C121.295 34.2748 119.559 32.6574 119.559 32.6574C119.559 32.6574 119.48 33.5538 119.381 33.6707C119.322 33.7876 119.223 33.8266 119.105 33.8266H116.185C115.987 33.8266 115.81 33.6707 115.81 33.4953L115.849 11.8445C115.849 11.6691 116.007 11.5132 116.185 11.5132H120.388C120.565 11.5132 120.723 11.6691 120.723 11.8445V19.1913C120.723 19.1913 122.341 18.1585 124.709 18.1585L124.689 18.1195C127.057 18.1195 130.55 18.9965 130.55 25.6808ZM113.343 18.6457H109.199C108.982 18.6457 108.864 18.8016 108.864 19.016V29.6173C108.864 29.6173 107.778 30.3773 106.299 30.3773C104.819 30.3773 104.384 29.7147 104.384 28.2531V18.9965C104.384 18.8211 104.227 18.6652 104.049 18.6652H99.8263C99.6487 18.6652 99.4908 18.8211 99.4908 18.9965V28.9547C99.4908 33.242 101.918 34.3138 105.253 34.3138C107.996 34.3138 110.225 32.8133 110.225 32.8133C110.225 32.8133 110.324 33.5733 110.383 33.6902C110.423 33.7876 110.561 33.8656 110.699 33.8656H113.343C113.56 33.8656 113.678 33.7097 113.678 33.5343L113.718 18.977C113.718 18.8016 113.56 18.6457 113.343 18.6457ZM66.5771 18.6262H62.374C62.1964 18.6262 62.0386 18.8016 62.0386 19.016V33.3199C62.0386 33.7097 62.2951 33.8461 62.6306 33.8461H66.4192C66.8138 33.8461 66.9125 33.6707 66.9125 33.3199V18.9575C66.9125 18.7821 66.7546 18.6262 66.5771 18.6262ZM64.5051 12.0394C62.9857 12.0394 61.7821 13.2281 61.7821 14.7287C61.7821 16.2292 62.9857 17.418 64.5051 17.418C65.9851 17.418 67.1888 16.2292 67.1888 14.7287C67.1888 13.2281 65.9851 12.0394 64.5051 12.0394ZM97.044 11.5522H92.8804C92.7029 11.5522 92.545 11.7081 92.545 11.8835V19.8539H86.0135V11.8835C86.0135 11.7081 85.8557 11.5522 85.6781 11.5522H81.4751C81.2975 11.5522 81.1396 11.7081 81.1396 11.8835V33.5343C81.1396 33.7097 81.3172 33.8656 81.4751 33.8656H85.6781C85.8557 33.8656 86.0135 33.7097 86.0135 33.5343V24.2776H92.545L92.5055 33.5343C92.5055 33.7097 92.6634 33.8656 92.841 33.8656H97.044C97.2216 33.8656 97.3794 33.7097 97.3794 33.5343V11.8835C97.3794 11.7081 97.2216 11.5522 97.044 11.5522ZM59.8088 21.1401V32.3261C59.8088 32.404 59.7891 32.5404 59.6904 32.5794C59.6904 32.5794 57.2239 34.3138 53.159 34.3138C48.2456 34.3138 42.4245 32.7938 42.4245 22.7771C42.4245 12.7604 47.5155 10.6947 52.4881 10.7142C56.7897 10.7142 58.5262 11.6691 58.8025 11.8445C58.8814 11.9419 58.9209 12.0199 58.9209 12.1173L58.0921 15.5861C58.0921 15.7615 57.9145 15.9759 57.6974 15.9174C56.9871 15.703 55.9215 15.2743 53.4155 15.2743C50.5148 15.2743 47.3971 16.0928 47.3971 22.5432C47.3971 28.9937 50.357 29.7537 52.4881 29.7537C54.3035 29.7537 54.9546 29.5393 54.9546 29.5393V25.0571H52.054C51.8369 25.0571 51.679 24.9012 51.679 24.7259V21.1401C51.679 20.9647 51.8369 20.8088 52.054 20.8088H59.4339C59.651 20.8088 59.8088 20.9647 59.8088 21.1401Z" fill="black"/>
</g>
</g>
<defs>
<clipPath id="clip0_201_36">
<rect width="131" height="46" fill="white" transform="translate(0.140625 0.703125)"/>
</clipPath>
<clipPath id="clip1_201_36">
<rect width="131" height="46" fill="white" transform="translate(0.140625 0.703125)"/>
</clipPath>
</defs>
</svg>
