<svg width="126" height="49" viewBox="0 0 126 49" fill="none" xmlns="http://www.w3.org/2000/svg">
<g clip-path="url(#clip0_201_37)">
<g clip-path="url(#clip1_201_37)">
<path d="M40.3678 21.9411H28.5155C27.8363 21.9411 27.3269 22.6262 27.5646 23.2611L30.4173 30.5294C30.5532 30.8468 30.2815 31.1977 29.9419 31.181L26.2741 30.9471C26.1213 30.9304 25.9515 31.0139 25.8496 31.1476L23.0139 35.1075C22.8611 35.3248 22.5554 35.4083 22.3177 35.2579L18.1405 32.4509C17.9877 32.3339 17.75 32.3339 17.5972 32.4509L11.7899 36.3273C11.4163 36.5779 10.9239 36.227 11.0427 35.8093L12.6559 30.1117C12.7238 29.8777 12.6049 29.6271 12.3672 29.5436L9.29376 28.3071C8.98812 28.1735 8.88624 27.8226 9.10698 27.5552L11.8408 24.2469C11.9767 24.0798 11.9936 23.8459 11.8578 23.6788L9.53149 20.4206C9.32773 20.1199 9.51451 19.7022 9.90506 19.6687L13.4539 19.4014C13.7087 19.3847 13.9294 19.1675 13.9124 18.9002L13.6407 14.0045C13.6238 13.6536 13.9803 13.403 14.3199 13.5367L18.7179 15.3245C18.9046 15.408 19.1424 15.3579 19.2612 15.1908L22.3007 11.8658C22.5384 11.5985 22.9799 11.682 23.1158 11.9995L24.9327 16.6111C25.1704 17.1792 25.9005 17.3964 26.41 17.0121L33.5417 11.7823C34.3568 11.1975 33.8304 9.9276 32.8285 10.0613L28.142 10.6795C27.9212 10.7129 27.7005 10.5792 27.6325 10.3787L25.1704 4.1464C24.8987 3.49477 24.0327 3.34439 23.5573 3.86236L18.1915 9.59343C18.0386 9.7438 17.8349 9.77722 17.6481 9.71039L10.5673 6.76966C9.93902 6.51903 9.24282 6.93675 9.20886 7.6218L8.95416 14.7898C8.93718 15.0405 8.75039 15.241 8.49569 15.2577L2.04316 15.6754C1.27904 15.7255 0.888493 16.5609 1.29602 17.1624L5.59205 23.3781C5.72789 23.5452 5.71091 23.7958 5.55809 23.9629L1.21112 28.8919C0.76963 29.3765 0.956414 30.1451 1.56771 30.3957L6.57691 32.5177C6.79765 32.618 6.91652 32.8519 6.84859 33.0691L3.65629 45.35C3.43554 46.2188 4.43739 46.8872 5.16754 46.3692L17.1726 37.8979C17.3255 37.7809 17.5632 37.7642 17.733 37.8979L23.2007 41.6741C23.6591 41.9915 24.2704 41.8578 24.5761 41.4234L27.9891 36.2604C28.091 36.1101 28.2778 36.0265 28.4646 36.0599L36.6491 37.029C37.3113 37.1293 37.9736 36.5779 37.7358 35.9764L34.3398 27.3046C34.2379 27.0707 34.3398 26.8201 34.6284 26.6697L40.8433 23.7791C41.7432 23.3279 41.4206 21.9411 40.3678 21.9411Z" fill="#FF3D3D" fill-opacity="0.5"/>
<path d="M125.426 21.9581H116.223C116.053 21.9581 115.883 22.1085 115.883 22.2923V26.3024C115.883 26.4694 116.036 26.6365 116.223 26.6365H120.162C120.349 26.6365 120.502 26.7869 120.502 26.9707C120.468 29.0259 120.027 32.7519 116.223 32.7519C113.116 32.7519 111.859 29.0593 111.859 24.715C111.859 19.5688 113.15 16.3941 116.036 16.3941C118.142 16.3941 118.821 18.1485 119.025 18.7835C119.076 18.9338 119.195 19.0174 119.347 19.0174H124.136C124.323 19.0174 124.492 18.8503 124.475 18.6665C124.289 16.0934 122.047 11.582 116.138 11.582C112.012 11.582 108.14 14.0549 106.901 20.1703V12.3005C106.901 12.2003 106.816 12.1334 106.731 12.1334H101.671C101.569 12.1334 101.501 12.217 101.501 12.3005V26.3692C101.501 26.5363 101.263 26.5864 101.178 26.436L94.5391 12.2337C94.5051 12.1668 94.4542 12.1334 94.3862 12.1334H89.9034C89.8016 12.1334 89.7336 12.217 89.7336 12.3005V20.187C88.0696 15.1911 83.5528 11.5987 77.6776 11.5987C71.1232 11.5987 66.2668 16.06 65.1631 21.9748H55.9937C55.8918 21.9748 55.8409 22.0584 55.8409 22.1419V26.4862C55.8409 26.5864 55.9258 26.6532 55.9937 26.6532H60.2727C60.3746 26.6532 60.4256 26.7368 60.4256 26.8036C60.4086 28.8254 60.052 32.7352 56.1295 32.7352C53.0221 32.7352 51.7826 29.0426 51.7826 24.6983C51.7826 19.5521 53.0731 16.3774 55.9597 16.3774C58.1841 16.3774 58.8294 18.3657 58.9822 18.8837C58.9992 18.9673 59.0671 19.0174 59.1351 19.0174H64.2292C64.331 19.0174 64.399 18.9338 64.382 18.8503C64.2801 16.3106 62.0727 11.5987 56.0276 11.5987C51.0184 11.5987 46.3828 15.2579 46.3828 24.6649C46.3828 31.1479 48.9638 37.5306 56.1126 37.5306C61.4104 37.5306 64.7895 33.5038 65.5366 28.6583C67.1328 33.8213 71.7005 37.5306 77.6776 37.5306C83.4509 37.5306 88.0526 33.9215 89.7336 28.8922V36.8622C89.7336 36.9625 89.8185 37.0293 89.9034 37.0293H94.9636C95.0655 37.0293 95.1334 36.9458 95.1334 36.8622V23.0275C95.1334 22.8604 95.3711 22.8103 95.456 22.9606L102.095 36.9458C102.129 37.0126 102.18 37.046 102.248 37.046H106.731C106.833 37.046 106.901 36.9625 106.901 36.8957V28.9925C107.886 33.7377 110.67 37.5807 116.206 37.5807C122.234 37.5807 125.783 32.3509 125.783 26.6365V22.3591C125.766 22.0918 125.613 21.9581 125.426 21.9581ZM77.6606 32.3342C73.3985 32.3342 70.444 29.1094 70.444 24.5647C70.444 20.0032 73.3985 16.7951 77.6606 16.7951C81.9057 16.7951 84.8773 20.0199 84.8773 24.5647C84.8773 29.1094 81.9057 32.3342 77.6606 32.3342Z" fill="black"/>
</g>
</g>
<defs>
<clipPath id="clip0_201_37">
<rect width="125" height="48" fill="white" transform="translate(0.96875 0.703125)"/>
</clipPath>
<clipPath id="clip1_201_37">
<rect width="125" height="48" fill="white" transform="translate(0.96875 0.703125)"/>
</clipPath>
</defs>
</svg>
