<svg width="127" height="46" viewBox="0 0 127 46" fill="none" xmlns="http://www.w3.org/2000/svg">
<g clip-path="url(#clip0_201_34)">
<g clip-path="url(#clip1_201_34)">
<path d="M0.484375 2.07812H27.6842V15.7388H14.0843L0.484375 2.07812ZM0.484375 15.7388H14.0843L27.6842 29.3994H0.484375V15.7388ZM0.484375 29.3994H14.0843V43.06L0.484375 29.3994Z" fill="black"/>
<path d="M43.0312 12.855H54.0259V16.3644H47.1927V21.2413H54.0259V24.6732H47.1927V30.9175H43.0312V12.855ZM56.2864 18.48H60.217V21.0863C60.4224 20.1907 60.8424 19.5032 61.4758 19.0219C62.1254 18.5225 62.8465 18.2738 63.6336 18.2738C64.0449 18.2738 64.3878 18.3088 64.6609 18.3769V22.0413C64.2689 21.9938 63.8744 21.9682 63.4793 21.9638C62.4004 21.9638 61.5878 22.3157 61.039 23.0213C60.4921 23.7094 60.217 24.7413 60.217 26.1182V30.9175H56.2883V18.48H56.2864ZM70.8657 31.2532C69.6673 31.2532 68.622 30.9688 67.7316 30.4013C66.858 29.8338 66.1636 29.0282 65.7281 28.0788C65.2657 27.0819 65.033 25.9538 65.033 24.6988C65.033 23.46 65.2745 22.3413 65.7536 21.3444C66.2028 20.3813 66.9159 19.5669 67.8088 18.9963C68.7153 18.4288 69.752 18.1444 70.9174 18.1444C71.7904 18.1444 72.5706 18.3344 73.2551 18.7125C73.9395 19.0919 74.4535 19.6082 74.7963 20.2607V18.48H78.7008V30.9175H74.7963V29.1625C74.4535 29.7819 73.9227 30.2888 73.2034 30.685C72.4841 31.0682 71.6802 31.2632 70.8657 31.2532ZM71.9963 27.9757C72.9377 27.9757 73.6657 27.6663 74.1797 27.0469C74.6936 26.4275 74.9506 25.6444 74.9506 24.6988C74.9506 23.77 74.6936 22.9957 74.1797 22.3763C73.6657 21.7569 72.9377 21.4475 71.9963 21.4475C71.1047 21.4475 70.3866 21.7482 69.8384 22.3507C69.3077 22.9532 69.042 23.735 69.042 24.6988C69.042 25.6625 69.3077 26.4532 69.8384 27.0725C70.3866 27.675 71.1059 27.9757 71.9963 27.9757ZM81.4497 18.48H85.3803V20.2863C85.6553 19.6488 86.0996 19.1325 86.7156 18.7382C87.3503 18.3438 88.0863 18.1444 88.9251 18.1444C90.8776 18.1444 92.1712 18.9094 92.804 20.4413C93.1525 19.7469 93.6976 19.1725 94.3714 18.79C95.0919 18.3544 95.9195 18.1313 96.7601 18.1444C99.6889 18.1444 101.153 19.8294 101.153 23.2019V30.9175H97.1969V23.9244C97.1969 23.0825 97.0426 22.4632 96.7346 22.0669C96.426 21.6719 95.9637 21.4732 95.3471 21.4732C94.6794 21.4732 94.1655 21.7057 93.8058 22.17C93.4462 22.6175 93.2664 23.3994 93.2664 24.5182V30.9175H89.3103V23.8988C89.3103 23.0563 89.1566 22.445 88.848 22.0669C88.558 21.6719 88.1031 21.4732 87.4878 21.4732C86.8021 21.4732 86.2794 21.7057 85.9198 22.17C85.5601 22.6175 85.3803 23.3994 85.3803 24.5182V30.9175H81.451V18.48H81.4497ZM115.918 24.0538C115.918 24.5863 115.884 25.1632 115.814 25.7825H106.67C106.705 26.5913 106.978 27.2094 107.492 27.6407C108.006 28.07 108.701 28.2857 109.573 28.2857C110.789 28.2857 111.56 27.915 111.885 27.1757H115.739C115.549 28.3975 114.882 29.3857 113.734 30.1432C112.604 30.8825 111.217 31.2532 109.573 31.2532C107.45 31.2532 105.78 30.6763 104.563 29.5238C103.365 28.3706 102.765 26.7632 102.765 24.6988C102.765 23.3569 103.039 22.1957 103.587 21.215C104.117 20.2357 104.933 19.4432 105.925 18.9444C106.936 18.4119 108.109 18.1444 109.446 18.1444C110.712 18.1444 111.833 18.3938 112.81 18.8932C113.803 19.3925 114.566 20.0888 115.096 20.9832C115.645 21.8788 115.918 22.9019 115.918 24.0538ZM112.038 23.3313C112.021 22.5057 111.79 21.8769 111.344 21.4475C110.9 21.0182 110.256 20.8025 109.417 20.8025C108.579 20.8025 107.911 21.0344 107.414 21.4994C106.935 21.9469 106.686 22.5569 106.668 23.3313H112.038ZM117.651 18.48H121.582V21.0863C121.787 20.1907 122.207 19.5032 122.841 19.0219C123.455 18.5357 124.216 18.2719 124.998 18.2738C125.409 18.2738 125.753 18.3088 126.026 18.3769V22.0413C125.634 21.9938 125.239 21.9682 124.844 21.9638C123.765 21.9638 122.953 22.3157 122.404 23.0213C121.855 23.7094 121.582 24.7413 121.582 26.1182V30.9175H117.651V18.48Z" fill="black"/>
</g>
</g>
<defs>
<clipPath id="clip0_201_34">
<rect width="126" height="45" fill="white" transform="translate(0.484375 0.203125)"/>
</clipPath>
<clipPath id="clip1_201_34">
<rect width="126" height="45" fill="white" transform="translate(0.484375 0.203125)"/>
</clipPath>
</defs>
</svg>
