<svg width="122" height="55" viewBox="0 0 122 55" fill="none" xmlns="http://www.w3.org/2000/svg">
<g clip-path="url(#clip0_201_32)">
<g clip-path="url(#clip1_201_32)">
<path fill-rule="evenodd" clip-rule="evenodd" d="M75.555 43.2359C68.5551 48.5127 58.4091 51.328 49.6736 51.328C37.4251 51.328 26.3982 46.6948 18.056 38.9888C17.4006 38.3828 17.9878 37.557 18.7743 38.0289C27.7772 43.3861 38.9089 46.6089 50.4077 46.6089C58.1627 46.6089 66.6937 44.968 74.5378 41.5628C75.7228 41.048 76.7138 42.3564 75.555 43.2359Z" fill="#FF9900" fill-opacity="0.5"/>
<path fill-rule="evenodd" clip-rule="evenodd" d="M78.4651 39.8307C77.5738 38.6617 72.5506 39.2784 70.296 39.5519C69.6091 39.6377 69.5042 39.0263 70.1229 38.5866C74.1236 35.7069 80.6883 36.5381 81.4539 37.5034C82.2194 38.474 81.2546 45.204 77.4951 48.4162C76.9183 48.9095 76.3678 48.6468 76.6247 47.9925C77.4689 45.8368 79.3618 41.0051 78.4651 39.8307Z" fill="#FF9900" fill-opacity="0.5"/>
<path fill-rule="evenodd" clip-rule="evenodd" d="M70.4551 18.2572V15.458C70.4551 15.0343 70.7698 14.7501 71.1473 14.7501H83.4011C83.7943 14.7501 84.1089 15.0397 84.1089 15.458V17.855C84.1037 18.2572 83.7733 18.7827 83.1861 19.6139L76.8363 28.8858C79.1959 28.8268 81.6865 29.1861 83.8258 30.4195C84.3082 30.6983 84.4393 31.1059 84.476 31.5081V34.495C84.476 34.9026 84.0355 35.3799 83.5741 35.1332C79.8041 33.1115 74.7967 32.8916 70.6282 35.1546C70.2035 35.3906 69.7578 34.9187 69.7578 34.5111V31.6743C69.7578 31.2185 69.763 30.4409 70.2087 29.7492L77.5652 18.9597H71.163C70.7698 18.9597 70.4551 18.6755 70.4551 18.2572Z" fill="black"/>
<path fill-rule="evenodd" clip-rule="evenodd" d="M25.7552 35.7231H22.0272C21.6706 35.6963 21.3875 35.4228 21.3613 35.0742V15.5063C21.3613 15.1148 21.6811 14.8038 22.0796 14.8038H25.556C25.9178 14.8198 26.2062 15.1041 26.2324 15.458V18.0159H26.3006C27.2077 15.5438 28.9118 14.3909 31.2084 14.3909C33.5417 14.3909 34.9993 15.5438 36.048 18.0159C36.9499 15.5438 39 14.3909 41.197 14.3909C42.7595 14.3909 44.4689 15.0504 45.5123 16.5305C46.6921 18.1768 46.4509 20.5685 46.4509 22.6653L46.4456 35.0152C46.4456 35.4067 46.1258 35.7231 45.7273 35.7231H42.0045C41.6322 35.6963 41.3333 35.3906 41.3333 35.0152V24.6441C41.3333 23.8182 41.4067 21.759 41.2285 20.9761C40.9506 19.6622 40.1169 19.2922 39.0367 19.2922C38.1349 19.2922 37.1911 19.9089 36.8083 20.8956C36.4255 21.8823 36.4622 23.534 36.4622 24.6441V35.0152C36.4622 35.4067 36.1424 35.7231 35.7439 35.7231H32.0211C31.6436 35.6963 31.3499 35.3906 31.3499 35.0152L31.3447 24.6441C31.3447 22.4615 31.696 19.2493 29.0481 19.2493C26.3687 19.2493 26.4736 22.3811 26.4736 24.6441V35.0152C26.4736 35.4067 26.1537 35.7231 25.7552 35.7231Z" fill="black"/>
<path fill-rule="evenodd" clip-rule="evenodd" d="M94.6585 14.3909C100.19 14.3909 103.184 19.2493 103.184 25.427C103.184 31.3955 99.8756 36.1306 94.6585 36.1306C89.2263 36.1306 86.2691 31.2722 86.2691 25.2178C86.2691 19.126 89.263 14.3909 94.6585 14.3909ZM94.6899 18.386C91.9424 18.386 91.7694 22.2148 91.7694 24.6012C91.7694 26.9929 91.7327 32.098 94.6585 32.098C97.5476 32.098 97.6839 27.9796 97.6839 25.4699C97.6839 23.8182 97.6157 21.8448 97.1281 20.2789C96.7086 18.9169 95.8749 18.386 94.6899 18.386Z" fill="black"/>
<path fill-rule="evenodd" clip-rule="evenodd" d="M110.357 35.7231H106.645C106.273 35.6963 105.974 35.3906 105.974 35.0152L105.969 15.4419C106 15.0826 106.309 14.8038 106.687 14.8038H110.142C110.467 14.8198 110.735 15.0451 110.808 15.3508V18.3431H110.876C111.92 15.6671 113.383 14.3909 115.957 14.3909C117.63 14.3909 119.261 15.0075 120.309 16.6968C121.285 18.2626 121.285 20.8956 121.285 22.7886V35.1064C121.243 35.4496 120.933 35.7231 120.566 35.7231H116.828C116.487 35.6963 116.204 35.4389 116.167 35.1064V24.4778C116.167 22.3382 116.408 19.2064 113.834 19.2064C112.927 19.2064 112.093 19.8285 111.679 20.7723C111.154 21.9681 111.086 23.1586 111.086 24.4778V35.0152C111.081 35.4067 110.756 35.7231 110.357 35.7231Z" fill="black"/>
<path fill-rule="evenodd" clip-rule="evenodd" d="M60.6867 26.3761C60.6867 27.8616 60.7234 29.1003 59.9894 30.4195C59.3969 31.492 58.4531 32.1516 57.4096 32.1516C55.9782 32.1516 55.1392 31.0362 55.1392 29.3899C55.1392 26.1402 57.9864 25.5503 60.6867 25.5503V26.3761ZM64.4463 35.6694C64.1998 35.8947 63.8433 35.9108 63.5654 35.7606C62.3279 34.7095 62.1025 34.2216 61.4261 33.2188C59.3811 35.353 57.9287 35.9912 55.2808 35.9912C52.14 35.9912 49.7019 34.0124 49.7019 30.0495C49.7019 26.9553 51.3378 24.8478 53.6763 23.8182C55.7003 22.9066 58.5265 22.7457 60.6867 22.4936V22.0003C60.6867 21.094 60.7549 20.0215 60.2306 19.2386C59.7796 18.5361 58.9092 18.2465 58.1385 18.2465C56.7175 18.2465 55.4538 18.9919 55.1445 20.5363C55.0816 20.8795 54.8351 21.2174 54.4943 21.2334L50.8816 20.8366C50.5775 20.7669 50.2367 20.5149 50.3258 20.0376C51.1543 15.5545 55.1183 14.2031 58.6628 14.2031C60.477 14.2031 62.847 14.6965 64.2785 16.1015C66.0927 17.8336 65.9196 20.1448 65.9196 22.6599V28.6016C65.9196 30.3873 66.6432 31.1703 67.3249 32.1355C67.5608 32.4787 67.6133 32.8916 67.3091 33.149C66.5488 33.7979 65.196 35.0045 64.4515 35.6802L64.4463 35.6694Z" fill="black"/>
<path fill-rule="evenodd" clip-rule="evenodd" d="M11.813 26.3761C11.813 27.8615 11.8497 29.1003 11.1156 30.4195C10.5231 31.492 9.58458 32.1516 8.5359 32.1516C7.10445 32.1516 6.27076 31.0362 6.27076 29.3899C6.27076 26.1402 9.11791 25.5503 11.813 25.5503V26.3761ZM15.5725 35.6694C15.3261 35.8946 14.9695 35.9107 14.6916 35.7606C13.4542 34.7095 13.234 34.2215 12.5523 33.2187C10.5074 35.353 9.06024 35.9912 6.40708 35.9912C3.27154 35.9912 0.828125 34.0124 0.828125 30.0495C0.828125 26.9553 2.4693 24.8478 4.80261 23.8182C6.82656 22.9065 9.65274 22.7457 11.813 22.4936V22.0003C11.813 21.094 11.8812 20.0215 11.3621 19.2386C10.9059 18.5361 10.0355 18.2465 9.26997 18.2465C7.84902 18.2465 6.58012 18.9919 6.27076 20.5363C6.20784 20.8795 5.9614 21.2173 5.62582 21.2334L2.00789 20.8366C1.70377 20.7669 1.36819 20.5148 1.45209 20.0376C2.28579 15.5545 6.24454 14.2031 9.78907 14.2031C11.6033 14.2031 13.9733 14.6965 15.4047 16.1015C17.2189 17.8336 17.0459 20.1448 17.0459 22.6599V28.6016C17.0459 30.3873 17.7695 31.1702 18.4511 32.1355C18.6923 32.4787 18.7448 32.8916 18.4406 33.149C17.6804 33.7979 16.3276 35.0045 15.583 35.6801L15.5725 35.6694Z" fill="black"/>
</g>
</g>
<defs>
<clipPath id="clip0_201_32">
<rect width="121" height="54" fill="white" transform="translate(0.828125 0.703125)"/>
</clipPath>
<clipPath id="clip1_201_32">
<rect width="121" height="54" fill="white" transform="translate(0.828125 0.703125)"/>
</clipPath>
</defs>
</svg>
