<svg width="113" height="49" viewBox="0 0 113 49" fill="none" xmlns="http://www.w3.org/2000/svg">
<g clip-path="url(#clip0_201_33)">
<g clip-path="url(#clip1_201_33)">
<path d="M48.464 26.3533C48.464 31.6765 44.3365 35.5991 39.2711 35.5991C34.2057 35.5991 30.0781 31.6765 30.0781 26.3533C30.0781 20.9925 34.2057 17.1074 39.2711 17.1074C44.3365 17.1074 48.464 20.9925 48.464 26.3533ZM44.4398 26.3533C44.4398 23.0268 42.0475 20.7507 39.2711 20.7507C36.4946 20.7507 34.1024 23.0268 34.1024 26.3533C34.1024 29.6464 36.4946 31.9558 39.2711 31.9558C42.0475 31.9558 44.4398 29.6422 44.4398 26.3533Z" fill="black"/>
<path d="M68.2999 26.3533C68.2999 31.6765 64.1724 35.5991 59.107 35.5991C54.0416 35.5991 49.9141 31.6765 49.9141 26.3533C49.9141 20.9967 54.0416 17.1074 59.107 17.1074C64.1724 17.1074 68.2999 20.9925 68.2999 26.3533ZM64.2757 26.3533C64.2757 23.0268 61.8835 20.7507 59.107 20.7507C56.3305 20.7507 53.9383 23.0268 53.9383 26.3533C53.9383 29.6464 56.3305 31.9558 59.107 31.9558C61.8835 31.9558 64.2757 29.6422 64.2757 26.3533Z" fill="black"/>
<path d="M87.3022 17.666V34.2652C87.3022 41.0933 83.311 43.882 78.5927 43.882C74.1511 43.882 71.4779 40.8848 70.4698 38.4337L73.9735 36.9622C74.5973 38.4671 76.1261 40.2429 78.5885 40.2429C81.6088 40.2429 83.4804 38.3629 83.4804 34.8238V33.494H83.3399C82.4392 34.6153 80.7039 35.5949 78.5141 35.5949C73.9321 35.5949 69.7344 31.5681 69.7344 26.3866C69.7344 21.1676 73.9321 17.1074 78.5141 17.1074C80.6998 17.1074 82.4351 18.087 83.3399 19.175H83.4804V17.6702H87.3022V17.666ZM83.7655 26.3866C83.7655 23.131 81.6129 20.7507 78.8736 20.7507C76.0971 20.7507 73.771 23.131 73.771 26.3866C73.771 29.6089 76.0971 31.9558 78.8736 31.9558C81.6129 31.9558 83.7655 29.6089 83.7655 26.3866Z" fill="black"/>
<path d="M93.6048 7.9375V35.0331H89.6797V7.9375H93.6048Z" fill="black"/>
<path d="M108.902 29.3966L112.026 31.4975C111.018 33.0024 108.588 35.5952 104.391 35.5952C99.1848 35.5952 95.2969 31.535 95.2969 26.3494C95.2969 20.851 99.2178 17.1035 103.94 17.1035C108.696 17.1035 111.022 20.9219 111.782 22.9853L112.199 24.0358L99.9491 29.1548C100.887 31.0098 102.345 31.956 104.391 31.956C106.44 31.956 107.861 30.9389 108.902 29.3966ZM99.2881 26.0701L107.477 22.6393C107.027 21.4847 105.671 20.6801 104.077 20.6801C102.031 20.6801 99.1848 22.5018 99.2881 26.0701Z" fill="black"/>
<path d="M15.2209 23.9488V20.0262H28.3224C28.4505 20.7099 28.5166 21.5186 28.5166 22.394C28.5166 25.337 27.7192 28.9761 25.1493 31.569C22.6497 34.1951 19.4559 35.5958 15.2251 35.5958C7.38319 35.5958 0.789062 29.1512 0.789062 21.2393C0.789062 13.3274 7.38319 6.88281 15.2251 6.88281C19.5633 6.88281 22.6538 8.60025 24.9758 10.8388L22.2324 13.6067C20.5673 12.031 18.3114 10.8054 15.2209 10.8054C9.49446 10.8054 5.01575 15.4617 5.01575 21.2393C5.01575 27.0169 9.49446 31.6732 15.2209 31.6732C18.9353 31.6732 21.0507 30.1683 22.4059 28.801C23.5049 27.6922 24.228 26.1082 24.513 23.9447L15.2209 23.9488Z" fill="black"/>
</g>
</g>
<defs>
<clipPath id="clip0_201_33">
<rect width="112" height="48" fill="white" transform="translate(0.65625 0.703125)"/>
</clipPath>
<clipPath id="clip1_201_33">
<rect width="112" height="48" fill="white" transform="translate(0.65625 0.703125)"/>
</clipPath>
</defs>
</svg>
