<svg width="150" height="51" viewBox="0 0 150 51" fill="none" xmlns="http://www.w3.org/2000/svg">
<g clip-path="url(#clip0_201_31)">
<path d="M149.722 25.3116V20.526C148.786 20.5635 145.977 20.9454 144.734 22.4358V20.8556H139.492V36.7998H144.734V29.2658C145.483 25.716 148.876 25.3415 149.737 25.3116H149.722ZM102.765 25.4988C102.203 24.9957 101.56 24.5906 100.863 24.3005C100.289 24.0209 99.6589 23.8774 99.0207 23.8811C98.5479 23.8765 98.0799 23.9762 97.6502 24.1732C97.4544 24.2527 97.2884 24.3915 97.1756 24.5702C97.0627 24.7488 97.0087 24.9583 97.0211 25.1693C97.0159 25.3832 97.0803 25.593 97.2045 25.7672C97.3288 25.9414 97.5062 26.0706 97.7101 26.1354C98.4417 26.4062 99.1928 26.6215 99.9568 26.7794C100.579 26.9143 101.19 27.0971 101.784 27.3261C102.382 27.554 102.942 27.8695 103.447 28.2623C103.939 28.6497 104.347 29.134 104.645 29.6852C104.959 30.3013 105.113 30.9862 105.094 31.6773C105.127 32.5213 104.937 33.3591 104.542 34.1059C104.148 34.8528 103.563 35.4824 102.848 35.9311C102.161 36.376 101.4 36.6932 100.601 36.8672C99.7963 37.0603 98.9719 37.1583 98.1445 37.1593C96.8333 37.1594 95.5307 36.947 94.2876 36.5302C93.1072 36.1631 92.028 35.5274 91.1347 34.6729L93.7259 31.4302C94.3575 32.007 95.075 32.4821 95.8528 32.8381C96.5334 33.1805 97.2852 33.3575 98.0471 33.3549C98.4916 33.3503 98.9294 33.2453 99.3277 33.0478C99.5301 32.9537 99.6989 32.8 99.8113 32.6072C99.9238 32.4144 99.9745 32.1918 99.9568 31.9694C99.9595 31.7322 99.8891 31.5 99.7551 31.3044C99.6211 31.1087 99.43 30.9591 99.2079 30.876C98.4269 30.551 97.617 30.3002 96.7889 30.1271C96.2163 29.9927 95.6534 29.82 95.1039 29.6103C94.5626 29.4001 94.0573 29.107 93.606 28.7416C93.175 28.3738 92.819 27.9262 92.5576 27.4235C92.2652 26.8222 92.1214 26.1596 92.1382 25.4913C92.1137 24.6269 92.326 23.7723 92.7523 23.0199C93.1535 22.3428 93.7043 21.7664 94.3625 21.3349C95.0163 20.8968 95.7409 20.575 96.5043 20.3837C97.2721 20.1827 98.0622 20.0796 98.8559 20.0767C100.057 20.0755 101.25 20.2651 102.391 20.6384C103.48 20.9787 104.48 21.5568 105.319 22.3309L102.765 25.4988ZM133.448 26.757C133.442 26.023 133.177 25.3149 132.699 24.7574C132.391 24.4422 132.017 24.1989 131.604 24.0449C131.191 23.8908 130.749 23.8298 130.31 23.8662C129.833 23.8621 129.359 23.9433 128.91 24.1058C128.502 24.2549 128.124 24.4755 127.794 24.7574C127.486 25.0327 127.232 25.3628 127.045 25.731C126.879 26.0504 126.774 26.3986 126.738 26.757H133.448ZM138.279 28.9213V29.5579C138.29 29.7599 138.29 29.9625 138.279 30.1645H126.715C126.749 30.5924 126.885 31.006 127.112 31.3702C127.338 31.7358 127.63 32.0559 127.974 32.3139C128.333 32.5823 128.732 32.7921 129.157 32.9355C129.593 33.0852 130.051 33.1611 130.512 33.1601C131.244 33.1814 131.969 33.0219 132.624 32.6958C133.176 32.4073 133.654 31.9976 134.025 31.4976L137.672 33.7967C136.912 34.8806 135.878 35.7437 134.676 36.2981C133.35 36.8952 131.907 37.1894 130.452 37.1593C129.298 37.166 128.151 36.9761 127.06 36.5976C126.03 36.2469 125.08 35.6945 124.266 34.9725C123.458 34.2421 122.816 33.3453 122.387 32.3438C121.908 31.2175 121.673 30.0026 121.698 28.779C121.682 27.5705 121.909 26.3712 122.364 25.2516C122.784 24.2466 123.403 23.3371 124.184 22.578C124.969 21.8361 125.893 21.2559 126.903 20.8705C127.99 20.4564 129.146 20.2506 130.31 20.2639C131.414 20.2535 132.51 20.4544 133.538 20.8556C134.494 21.2328 135.356 21.8157 136.062 22.5631C136.787 23.3442 137.348 24.2638 137.709 25.2666C138.119 26.4357 138.319 27.6678 138.301 28.9063L138.279 28.9213ZM75.123 25.1768V20.3613H70.6295V16.789C70.5172 14.7295 69.5436 13.1942 65.5669 13.1942V31.7447C65.5632 32.488 65.6589 33.2285 65.8515 33.9465C66.0212 34.5773 66.3281 35.1629 66.7502 35.6615C67.2021 36.1582 67.771 36.5341 68.4052 36.7549C69.2911 37.0367 70.2168 37.1733 71.1463 37.1593C72.5003 37.1759 73.8466 36.9528 75.123 36.5003V32.2315C74.2711 32.4499 73.3961 32.5655 72.5168 32.576C72.243 32.6099 71.965 32.5795 71.705 32.4871C71.445 32.3948 71.2101 32.2432 71.019 32.0443C70.7194 31.558 70.5854 30.9879 70.637 30.4191V25.1768H75.123Z" fill="black"/>
<path d="M117.174 28.2924L123.091 20.8033H116.83L111.588 27.4236V16.9389C111.49 14.782 110.554 13.1943 106.517 13.1943V36.8H111.588V29.1761L117.579 36.8H123.907L117.174 28.2924ZM90.2436 36.785V26.2254C90.2436 21.6795 86.6338 20.0469 83.436 20.0469C80.9181 19.9212 78.441 20.7203 76.4711 22.2936L79.1148 25.5738C80.1793 24.6389 81.5095 24.0602 82.9193 23.9187C84.8439 23.9187 85.2409 25.0196 85.2409 26.4276V26.6972H83.5109C79.0624 26.6972 76.3888 28.6219 76.3888 32.0519C76.3888 35.7964 79.684 36.77 83.6981 36.77L90.2436 36.785ZM85.2409 33.4673H83.5783C82.2827 33.4673 81.4888 32.9281 81.4888 31.8122C81.4888 30.6964 82.2827 30.0523 83.8704 30.0523H85.2409V33.4673ZM47.0989 16.0926C47.0989 16.8673 47.4066 17.6102 47.9544 18.1579C48.5021 18.7056 49.245 19.0134 50.0197 19.0134C50.7943 19.0134 51.5372 18.7056 52.0849 18.1579C52.6327 17.6102 52.9404 16.8673 52.9404 16.0926C52.9404 15.318 52.6327 14.5751 52.0849 14.0273C51.5372 13.4796 50.7943 13.1719 50.0197 13.1719C49.245 13.1719 48.5021 13.4796 47.9544 14.0273C47.4066 14.5751 47.0989 15.318 47.0989 16.0926ZM47.5932 20.3989H47.376V36.8H52.6558V23.8513C52.506 21.8592 51.4875 20.3989 47.5932 20.3989ZM64.4062 25.3117V20.5262C63.4776 20.5636 60.6617 20.9456 59.4185 22.4359V20.8557H54.1761V36.8H59.4185V29.3933C59.4149 29.3509 59.4149 29.3083 59.4185 29.2659C60.1674 25.7161 63.5525 25.3417 64.4212 25.3117H64.4062ZM148.202 34.396H147.91V34.9502H148.202C148.239 34.9522 148.277 34.9465 148.312 34.9335C148.348 34.9205 148.38 34.9004 148.407 34.8745C148.435 34.8486 148.456 34.8173 148.471 34.7827C148.486 34.7481 148.494 34.7108 148.494 34.6731C148.494 34.6354 148.486 34.5981 148.471 34.5634C148.456 34.5288 148.435 34.4976 148.407 34.4716C148.38 34.4457 148.348 34.4256 148.312 34.4126C148.277 34.3996 148.239 34.3939 148.202 34.396ZM148.494 35.9312L148.134 35.1823H147.91V35.9312H147.58V34.1114H148.284C148.359 34.1094 148.433 34.1224 148.503 34.1499C148.572 34.1773 148.635 34.2185 148.688 34.2709C148.742 34.3234 148.784 34.386 148.812 34.4552C148.84 34.5243 148.854 34.5984 148.853 34.6731C148.854 34.782 148.821 34.8885 148.757 34.9773C148.694 35.0661 148.605 35.1326 148.501 35.1673L148.898 35.9163L148.494 35.9312ZM148.149 33.6845C147.876 33.671 147.604 33.7398 147.37 33.882C147.136 34.0242 146.95 34.2332 146.836 34.4822C146.722 34.7311 146.685 35.0085 146.73 35.2787C146.775 35.5488 146.9 35.7992 147.089 35.9977C147.277 36.1962 147.521 36.3336 147.789 36.3921C148.056 36.4507 148.335 36.4278 148.59 36.3263C148.844 36.2249 149.062 36.0496 149.216 35.823C149.37 35.5964 149.452 35.3289 149.452 35.055C149.457 34.8793 149.428 34.7044 149.365 34.5403C149.302 34.3761 149.207 34.2261 149.086 34.0987C148.965 33.9713 148.82 33.8691 148.659 33.7981C148.498 33.727 148.325 33.6884 148.149 33.6845ZM148.149 36.7401C147.815 36.7504 147.486 36.6612 147.202 36.4838C146.919 36.3063 146.695 36.0487 146.559 35.7436C146.422 35.4386 146.38 35.0998 146.436 34.7705C146.493 34.4411 146.646 34.136 146.877 33.894C147.107 33.6519 147.404 33.4839 147.73 33.4112C148.057 33.3384 148.397 33.3643 148.708 33.4856C149.02 33.6068 149.288 33.8179 149.479 34.092C149.67 34.3662 149.776 34.6909 149.782 35.0251C149.788 35.4647 149.619 35.8889 149.314 36.2047C149.008 36.5205 148.589 36.7022 148.149 36.7101V36.7401ZM32.6375 27.5509L34.9816 20.8108L37.3256 27.5509H32.6375ZM37.4455 13.1943H32.7348L25.4629 32.4114H22.6021C20.6517 32.494 18.7191 32.0102 17.0377 31.0184C16.3675 30.5884 15.8237 29.988 15.4618 29.2787C15.0999 28.5694 14.933 27.7767 14.9782 26.9818V24.735H12.6566C10.4971 24.6758 8.42909 23.8502 6.82256 22.4059C5.56744 21.0895 4.77827 19.398 4.57584 17.5904H20.8496C23.8078 17.5904 24.9012 19.0358 25.5827 20.3314C25.9176 20.9813 26.1692 21.6707 26.3317 22.3835L28.3912 16.9389C28.3912 16.9389 26.6687 13.1943 20.8496 13.1943H0V15.4411C0 19.6799 1.25817 23.0799 3.74455 25.5214C5.6963 27.3684 8.16542 28.5755 10.8217 28.9814C11.7579 33.7894 16.1764 36.785 22.6021 36.785H29.2824L30.7802 32.4563H39.1455L40.6433 36.7775H46.3575L37.4455 13.1943Z" fill="black"/>
</g>
<defs>
<clipPath id="clip0_201_31">
<rect width="150" height="50" fill="white" transform="translate(0 0.703125)"/>
</clipPath>
</defs>
</svg>
