<svg width="279" height="452" viewBox="0 0 279 452" fill="none" xmlns="http://www.w3.org/2000/svg">
<path d="M234.645 225.332C234.645 277.883 192.043 320.484 139.492 320.484C86.9418 320.484 44.3359 277.883 44.3359 225.332C44.3359 172.781 86.9418 130.18 139.492 130.18C192.043 130.18 234.645 172.781 234.645 225.332Z" fill="#FEE5E5"/>
<path d="M192.668 384.861C192.668 414.229 168.862 438.035 139.494 438.035C110.126 438.035 86.3203 414.229 86.3203 384.861C86.3203 355.493 110.126 331.688 139.494 331.688C168.862 331.688 192.668 355.493 192.668 384.861Z" fill="#FBDF8B"/>
<path d="M139.493 0L0.1875 139.305L28.5187 167.64L139.499 56.6707L250.479 167.64L278.81 139.305L139.493 0Z" fill="#7393FF" fill-opacity="0.22"/>
</svg>
