<svg width="22" height="22" viewBox="0 0 22 22" fill="none" xmlns="http://www.w3.org/2000/svg">
<g clip-path="url(#clip0_1_54551)">
<path d="M11.129 21.2271C16.969 21.2271 21.7033 16.484 21.7033 10.6331C21.7033 4.78217 16.969 0.0390625 11.129 0.0390625C5.28896 0.0390625 0.554688 4.78217 0.554688 10.6331C0.554688 16.484 5.28896 21.2271 11.129 21.2271Z" fill="#296AF7"/>
<path d="M5.88707 9.43123H8.21235C8.39544 9.43123 8.54473 9.57911 8.54473 9.76361V15.1029C8.54473 15.286 8.39685 15.4353 8.21235 15.4353H5.88707C5.70398 15.4353 5.55469 15.2874 5.55469 15.1029V9.7622C5.5561 9.57911 5.70398 9.43123 5.88707 9.43123ZM9.35738 14.1804V10.3551C9.35879 9.41292 9.62216 8.49042 10.1193 7.69044C10.4221 7.20595 11.101 6.42992 11.4813 6.02852C11.5658 5.93839 11.8728 5.67361 11.8728 5.52854C11.8728 5.34263 11.8939 5.04264 11.901 4.4835C11.9052 4.12859 12.1939 3.83705 12.5488 3.83986H12.5643C13.1854 3.85113 13.384 4.42576 13.384 4.42576C13.384 4.42576 13.915 5.47361 13.4192 6.75526C13.0009 7.83832 12.915 7.92564 12.915 7.92564C12.915 7.92564 12.7798 8.12141 13.208 8.11296C13.208 8.11296 15.822 8.1017 15.9121 8.1017C16.105 8.1017 16.7205 8.27775 16.6853 9.06223C16.66 9.64249 16.2994 9.8453 16.1149 9.91149C16.091 9.91994 16.0783 9.9467 16.0881 9.97065C16.0924 9.98051 16.0994 9.98896 16.1093 9.99459C16.298 10.1044 16.6839 10.3819 16.6754 10.8072C16.6642 11.3227 16.4571 11.5129 16.0262 11.6312C16.0022 11.6368 15.9867 11.6621 15.9938 11.6861C15.9966 11.6988 16.005 11.7086 16.0149 11.7143C16.1783 11.8072 16.4586 12.034 16.4417 12.4931C16.4248 12.9607 16.0867 13.1255 15.9022 13.1818C15.8783 13.1889 15.8642 13.2142 15.8712 13.2381C15.8741 13.248 15.8811 13.2579 15.8896 13.2635C16.0065 13.3438 16.1797 13.5255 16.1712 13.8987C16.167 14.0959 16.1008 14.2395 16.0177 14.3423C15.8867 14.5043 15.6811 14.5888 15.4727 14.5902L9.67286 14.6015C9.67145 14.6001 9.35738 14.6015 9.35738 14.1804V14.1804Z" fill="#B5F7F4"/>
</g>
<defs>
<clipPath id="clip0_1_54551">
<rect width="21.188" height="21.188" fill="white" transform="translate(0.539062 0.03125)"/>
</clipPath>
</defs>
</svg>
