<svg width="65" height="11" viewBox="0 0 65 11" fill="none" xmlns="http://www.w3.org/2000/svg">
<path fill-rule="evenodd" clip-rule="evenodd" d="M3.83408 0.81274C1.80985 1.65327 0.40625 3.48887 0.40625 5.61688C0.405688 7.74537 1.80997 9.58061 3.83504 10.4208C2.67484 9.41663 1.9041 7.63987 1.9041 5.61688C1.9041 3.59397 2.67532 1.8174 3.8341 0.8125L3.83408 0.81274Z" fill="black" fill-opacity="0.7"/>
<path fill-rule="evenodd" clip-rule="evenodd" d="M5.55501 0.263792C4.60622 0.263792 3.83594 2.66107 3.83594 5.61558C3.83594 8.57177 4.60612 10.9676 5.55578 10.9678C6.02456 10.9676 6.45007 10.3814 6.7601 9.43197C7.02243 10.0706 7.3528 10.4521 7.71133 10.4521C8.56628 10.4524 9.25976 8.2949 9.25911 5.63385C9.25976 2.97306 8.56676 0.815084 7.71208 0.816282C7.35615 0.816282 7.02824 1.19187 6.76664 1.82118C6.45568 0.859562 6.02792 0.264127 5.55503 0.263672L5.55501 0.263792ZM9.02959 5.63428C9.03025 7.12753 8.65849 8.33895 8.2006 8.33895C7.7425 8.33895 7.37131 7.12744 7.37131 5.63476C7.37131 4.14067 7.74241 2.92962 8.2006 2.92914C8.65897 2.92951 9.03007 4.14048 9.02959 5.63428ZM6.68879 2.02111C6.36725 2.90406 6.16418 4.1951 6.16418 5.63404C6.16409 7.06042 6.3634 8.34183 6.67989 9.22396C6.52544 9.4333 6.35526 9.54943 6.17665 9.54943C5.47811 9.54887 4.91258 7.78811 4.91258 5.61544C4.91258 3.44369 5.47811 1.68216 6.17571 1.68216C6.35854 1.68253 6.53219 1.80392 6.68879 2.02103V2.02111Z" fill="black" fill-opacity="0.7"/>
<path fill-rule="evenodd" clip-rule="evenodd" d="M9.25781 5.61608C9.25819 6.41511 9.45666 7.06231 9.7013 7.06231C9.94604 7.06231 10.1447 6.41453 10.1451 5.61644C10.1447 4.81741 9.94652 4.16992 9.70159 4.16992C9.45666 4.17002 9.25736 4.81751 9.25781 5.61606V5.61608Z" fill="black" fill-opacity="0.7"/>
<path d="M16.7284 9.28516H15.6546V2.95496H16.7284L18.772 7.99487L20.8157 2.95496H21.9068V9.28516H20.833V7.33674C20.833 6.06377 20.833 5.6914 20.8936 5.2411L19.2829 9.28516H18.2611L16.6591 5.24976C16.7197 5.63079 16.7284 6.2283 16.7284 7.01633V9.28516ZM27.4125 9.28516H23.481V2.95496H27.4125V3.9768H24.5895V5.60481H27.1181V6.58335H24.5895V8.26332H27.4125V9.28516ZM29.8959 9.28516H28.7874V2.95496H31.2035C32.641 2.95496 33.481 3.68237 33.481 4.92936C33.481 5.778 33.0826 6.38418 32.3379 6.68726L33.5416 9.28516H32.3292L31.2554 6.92107H29.8959V9.28516ZM29.8959 3.94216V5.94253H31.2035C31.9049 5.94253 32.3206 5.57017 32.3206 4.92936C32.3206 4.2972 31.9049 3.94216 31.2035 3.94216H29.8959ZM35.8357 9.28516H34.7619V2.95496H35.8357L37.8794 7.99487L39.9231 2.95496H41.0142V9.28516H39.9404V7.33674C39.9404 6.06377 39.9404 5.6914 40.001 5.2411L38.3903 9.28516H37.3685L35.7664 5.24976C35.8271 5.63079 35.8357 6.2283 35.8357 7.01633V9.28516ZM46.5199 9.28516H42.5884V2.95496H46.5199V3.9768H43.6968V5.60481H46.2255V6.58335H43.6968V8.26332H46.5199V9.28516ZM49.4882 6.12439L47.3839 2.95496H48.7002L49.4709 4.08937C49.7307 4.47905 49.9471 4.84276 50.181 5.27574L51.6531 2.95496H52.9434L50.8737 6.11573L52.952 9.28516H51.6444L50.9343 8.23734C50.6572 7.81302 50.4321 7.43199 50.181 6.97303L48.6395 9.28516H47.3406L49.4882 6.12439Z" fill="black" fill-opacity="0.7"/>
</svg>
