<svg width="35" height="36" viewBox="0 0 35 36" fill="none" xmlns="http://www.w3.org/2000/svg">
<path d="M8.16309 14.7397C9.49473 10.7046 13.2868 7.80657 17.7783 7.80657C20.1927 7.80657 22.3735 8.66331 24.087 10.0653L29.0717 5.08058C26.0342 2.43247 22.1399 0.796875 17.7783 0.796875C11.0244 0.796875 5.20955 4.64978 2.41406 10.2925L8.16309 14.7397Z" fill="#EA4335"/>
<path d="M23.5438 26.519C21.9877 27.5238 20.0103 28.0587 17.7741 28.0587C13.2997 28.0587 9.51956 25.1828 8.17428 21.1719L2.40625 25.5514C5.19826 31.204 11.013 35.0684 17.7741 35.0684C21.9619 35.0684 25.9636 33.5796 28.9605 30.7841L23.5438 26.519Z" fill="#34A853"/>
<path d="M28.9599 30.7941C32.0941 27.8705 34.1294 23.5176 34.1294 17.9435C34.1294 16.931 33.9736 15.8406 33.74 14.8281H17.7734V21.4484H26.9639C26.5104 23.6746 25.2932 25.3989 23.5432 26.5289L28.9599 30.7941Z" fill="#4A90E2"/>
<path d="M8.17563 21.1588C7.83486 20.1428 7.65032 19.0539 7.65032 17.9205C7.65032 16.8043 7.8293 15.7312 8.16024 14.7285L2.41121 10.2812C1.26403 12.5808 0.640625 15.1723 0.640625 17.9205C0.640625 20.6614 1.27573 23.2468 2.4076 25.5383L8.17563 21.1588Z" fill="#FBBC05"/>
</svg>
