<svg width="65" height="12" viewBox="0 0 65 12" fill="none" xmlns="http://www.w3.org/2000/svg">
<path fill-rule="evenodd" clip-rule="evenodd" d="M4.31846 1.4143C2.29422 2.25484 0.890625 4.09044 0.890625 6.21844C0.890063 8.34693 2.29434 10.1822 4.31941 11.0223C3.15921 10.0182 2.38848 8.24143 2.38848 6.21844C2.38848 4.19553 3.15969 2.41896 4.31848 1.41406L4.31846 1.4143Z" fill="white" fill-opacity="0.7"/>
<path fill-rule="evenodd" clip-rule="evenodd" d="M6.03938 0.865354C5.09059 0.865354 4.32031 3.26263 4.32031 6.21714C4.32031 9.17334 5.0905 11.5692 6.04015 11.5694C6.50894 11.5691 6.93444 10.983 7.24447 10.0335C7.50681 10.6721 7.83717 11.0537 8.19571 11.0537C9.05065 11.054 9.74413 8.89647 9.74348 6.23541C9.74414 3.57463 9.05113 1.41665 8.19645 1.41784C7.84053 1.41784 7.51261 1.79343 7.25102 2.42274C6.94005 1.46112 6.51229 0.86569 6.03941 0.865234L6.03938 0.865354ZM9.51397 6.23585C9.51463 7.7291 9.14287 8.94051 8.68497 8.94051C8.22688 8.94051 7.85568 7.729 7.85568 6.23633C7.85568 4.74224 8.22678 3.53118 8.68497 3.5307C9.14335 3.53107 9.51445 4.74204 9.51397 6.23585ZM7.17316 2.62267C6.85162 3.50562 6.64856 4.79667 6.64856 6.23561C6.64846 7.66198 6.84778 8.94339 7.16427 9.82552C7.00982 10.0349 6.83963 10.151 6.66103 10.151C5.96249 10.1504 5.39695 8.38968 5.39695 6.217C5.39695 4.04526 5.96249 2.28372 6.66009 2.28372C6.84292 2.2841 7.01656 2.40548 7.17316 2.6226V2.62267Z" fill="white" fill-opacity="0.7"/>
<path fill-rule="evenodd" clip-rule="evenodd" d="M9.74219 6.21764C9.74256 7.01667 9.94103 7.66387 10.1857 7.66387C10.4304 7.66387 10.6291 7.01609 10.6295 6.218C10.6291 5.41897 10.4309 4.77148 10.186 4.77148C9.94103 4.77158 9.74173 5.41907 9.74219 6.21762V6.21764Z" fill="white" fill-opacity="0.7"/>
<path d="M17.2127 9.88672V7.61789C17.2127 6.82986 17.2041 6.23235 17.1434 5.85133L18.7455 9.88672H19.7673L21.378 5.84267C21.3174 6.29297 21.3174 6.66533 21.3174 7.9383V9.88672H22.3912V3.55652H21.3001L19.2564 8.59643L17.2127 3.55652H16.1389V9.88672H17.2127ZM27.8969 9.88672V8.86488H25.0739V7.18491H27.6025V6.20637H25.0739V4.57836H27.8969V3.55652H23.9654V9.88672H27.8969ZM30.3803 9.88672V7.52264H31.7398L32.8136 9.88672H34.026L32.8223 7.28883C33.567 6.98574 33.9653 6.37956 33.9653 5.53092C33.9653 4.28393 33.1254 3.55652 31.6879 3.55652H29.2718V9.88672H30.3803ZM30.3803 4.54372H31.6879C32.3893 4.54372 32.805 4.89876 32.805 5.53092C32.805 6.17173 32.3893 6.5441 31.6879 6.5441H30.3803V4.54372ZM36.3201 9.88672V7.61789C36.3201 6.82986 36.3114 6.23235 36.2508 5.85133L37.8528 9.88672H38.8747L40.4854 5.84267C40.4248 6.29297 40.4248 6.66533 40.4248 7.9383V9.88672H41.4986V3.55652H40.4074L38.3638 8.59643L36.3201 3.55652H35.2463V9.88672H36.3201ZM47.0043 9.88672V8.86488H44.1812V7.18491H46.7098V6.20637H44.1812V4.57836H47.0043V3.55652H43.0728V9.88672H47.0043ZM49.4876 3.55652H48.3792V9.88672H52.1375V8.86488H49.4876V3.55652ZM57.1435 9.88672V8.86488H54.3204V7.18491H56.8491V6.20637H54.3204V4.57836H57.1435V3.55652H53.212V9.88672H57.1435ZM60.1118 6.72595L57.9642 9.88672H59.2631L60.8046 7.57459C61.0557 8.03356 61.2808 8.41458 61.5579 8.8389L62.268 9.88672H63.5756L61.4973 6.71729L63.567 3.55652H62.2767L60.8046 5.8773C60.5707 5.44432 60.3543 5.08062 60.0945 4.69093L59.3238 3.55652H58.0075L60.1118 6.72595Z" fill="white" fill-opacity="0.7"/>
</svg>
