<svg width="280" height="86" viewBox="0 0 280 86" fill="none" xmlns="http://www.w3.org/2000/svg">
<path d="M14.6455 19.4458C9.92511 22.0786 10.8582 29.7909 6.31649 32.9332C3.21525 35.0789 0.367187 37.9796 0.367187 41.7507L0.367187 64.598C0.367187 76.2888 9.84445 85.7661 21.5352 85.7661H256.436C268.127 85.7661 277.604 76.2888 277.604 64.5981V37.0339C277.604 34.3253 277.096 31.6454 275.959 29.1873C272.058 20.7595 261.755 1.08141 250.833 1.66793C239.026 2.30193 237.71 19.8304 227.035 26.5862C217.516 32.611 211.141 38.3869 200.859 35.3134C187.797 31.409 191.003 3.02883 177.656 1.66793C166.285 0.508449 163.458 16.896 152.669 21.8259C145.945 24.8986 141.919 27.0955 134.821 26.5862C119.368 25.4773 112.173 8.66104 103.249 12.6279C94.3255 16.5948 87.7447 49.5443 67.2708 41.54C57.6425 37.7757 59.3722 33.535 49.7464 29.7597C43.5053 27.312 39.4884 31.3146 33.0883 29.7597C25.4048 27.893 21.8507 15.427 14.6455 19.4458Z" fill="url(#paint0_linear_1_54631)" fill-opacity="0.2"/>
<path d="M1.5 35.3524C1.5 35.3524 5.29619 34.462 7.4493 32.9723C11.9911 29.8299 11.0579 22.1177 15.7783 19.4849C22.9835 15.4661 26.5376 27.932 34.2211 29.7988C40.6212 31.3537 44.6381 27.3511 50.8792 29.7988C60.505 33.574 59.5383 37.2886 69.1666 41.0528C89.6405 49.0572 95.9398 16.6714 104.864 12.7045C113.788 8.73759 120.501 25.5164 135.954 26.6253C143.052 27.1346 147.078 24.9376 153.802 21.865C164.591 16.9351 167.418 0.547511 178.789 1.70699C192.136 3.06789 188.93 31.4481 201.991 35.3524C212.274 38.4259 218.649 32.6501 228.168 26.6253C238.843 19.8694 240.159 2.341 251.965 1.70699C265.852 0.961299 278.737 32.9723 278.737 32.9723" stroke="url(#paint1_linear_1_54631)" stroke-width="1.93373" stroke-linecap="round"/>
<defs>
<linearGradient id="paint0_linear_1_54631" x1="138.985" y1="-4.67886" x2="138.985" y2="85.7663" gradientUnits="userSpaceOnUse">
<stop stop-color="#FF9B1E"/>
<stop offset="1" stop-color="#487371" stop-opacity="0"/>
</linearGradient>
<linearGradient id="paint1_linear_1_54631" x1="140.12" y1="-4.63965" x2="140.12" y2="53.5286" gradientUnits="userSpaceOnUse">
<stop stop-color="#F5A447"/>
<stop offset="1" stop-color="#F5A447"/>
</linearGradient>
</defs>
</svg>
