<svg width="141" height="36" viewBox="0 0 141 36" fill="none" xmlns="http://www.w3.org/2000/svg">
<path fill-rule="evenodd" clip-rule="evenodd" d="M29.4375 17.8201C29.4387 20.4542 30.093 22.5878 30.8995 22.5878C31.7063 22.5878 32.3612 20.4523 32.3625 17.8213C32.3612 15.1872 31.7079 13.0527 30.9005 13.0527C30.093 13.053 29.436 15.1876 29.4375 17.8201V17.8201Z" fill="#0E0B3D"/>
<path fill-rule="evenodd" clip-rule="evenodd" d="M11.3002 2.09259C4.62709 4.86348 5.55861e-07 10.9147 5.55861e-07 17.9299C-0.00185208 24.9467 4.62749 30.9967 11.3033 33.7664C7.47861 30.4561 4.93782 24.5989 4.93782 17.9299C4.93782 11.2612 7.4802 5.40454 11.3002 2.0918L11.3002 2.09259Z" fill="#0E0B3D"/>
<path fill-rule="evenodd" clip-rule="evenodd" d="M15.8233 0.355864C12.6955 0.355864 10.1562 8.25871 10.1562 17.9985C10.1562 27.7439 12.6952 35.642 15.8259 35.6428C17.3713 35.6419 18.774 33.7096 19.796 30.5796C20.6608 32.6848 21.7499 33.9427 22.9319 33.9427C25.7503 33.9437 28.0364 26.8312 28.0342 18.0588C28.0364 9.28724 25.7518 2.17325 22.9343 2.1772C21.761 2.1772 20.68 3.41535 19.8176 5.48995C18.7925 2.31988 17.3823 0.356971 15.8234 0.355469L15.8233 0.355864ZM27.2776 18.0602C27.2798 22.9828 26.0543 26.9764 24.5448 26.9764C23.0346 26.9764 21.8109 22.9825 21.8109 18.0618C21.8109 13.1364 23.0343 9.14401 24.5448 9.14243C26.0558 9.14366 27.2792 13.1357 27.2776 18.0602ZM19.5609 6.14902C18.501 9.05975 17.8315 13.3158 17.8315 18.0594C17.8312 22.7616 18.4883 26.9859 19.5316 29.8939C19.0225 30.584 18.4614 30.9669 17.8726 30.9669C15.5698 30.965 13.7055 25.1605 13.7055 17.9981C13.7055 10.8387 15.5698 5.03165 17.8695 5.03165C18.4723 5.03288 19.0447 5.43304 19.5609 6.14878V6.14902Z" fill="#0E0B3D"/>
<path d="M47.0785 28V19.4532C47.0785 16.6595 47.0232 14.6127 46.8849 13.6446L52.6934 28H55.2381L61.0743 13.5893C60.936 14.9999 60.9084 16.3553 60.9084 20.0893V28H63.5637V8.00203H60.853L53.9658 24.8191L47.0785 8.00203H44.4232V28H47.0785ZM73.0607 28.3319C76.4075 28.3319 78.6756 26.7 79.3394 23.7957H76.9054C76.4628 25.3447 75.1352 26.1745 73.116 26.1745C70.5437 26.1745 69.05 24.5979 68.8564 21.7489L79.3118 21.7212V20.7532C79.3118 16.7425 76.7947 14.0872 72.95 14.0872C69.0224 14.0872 66.3394 17.0191 66.3394 21.251C66.3394 25.4553 69.0777 28.3319 73.0607 28.3319ZM72.95 16.2723C75.2458 16.2723 76.7118 17.7659 76.7118 20.0063H68.9117C69.2436 17.6276 70.682 16.2723 72.95 16.2723ZM89.4074 14.3638C88.8818 14.2531 88.4946 14.1978 88.0244 14.1978C86.1712 14.1978 84.8158 15.1382 84.2626 16.5489L84.0967 14.5021H81.6626V28H84.2626V20.8361C84.2626 18.2361 85.7839 16.7425 88.2456 16.7425H89.4074V14.3638ZM93.8928 28V19.9787C93.8928 17.8212 95.1928 16.4659 97.1566 16.4659C98.9822 16.4659 100.144 17.6276 100.144 19.7574V28H102.716V19.9787C102.716 17.8212 104.016 16.4382 105.98 16.4382C107.806 16.4382 108.995 17.6553 108.995 19.7851V28H111.54V19.1489C111.54 16.0233 109.659 14.0872 106.561 14.0872C104.459 14.0872 102.827 15.1382 102.191 16.8255C101.499 15.1382 100.006 14.0872 97.9034 14.0872C95.9949 14.0872 94.5566 14.9723 93.8651 16.2446L93.6162 14.4744H91.2928V28H93.8928ZM120.427 28.3319C123.774 28.3319 126.042 26.7 126.706 23.7957H124.272C123.829 25.3447 122.501 26.1745 120.482 26.1745C117.91 26.1745 116.416 24.5979 116.223 21.7489L126.678 21.7212V20.7532C126.678 16.7425 124.161 14.0872 120.316 14.0872C116.389 14.0872 113.706 17.0191 113.706 21.251C113.706 25.4553 116.444 28.3319 120.427 28.3319ZM120.316 16.2723C122.612 16.2723 124.078 17.7659 124.078 20.0063H116.278C116.61 17.6276 118.048 16.2723 120.316 16.2723ZM129.899 28L133.218 23.0489L136.592 28H139.607L134.988 21.3064L139.69 14.4744H136.731L133.384 19.5085L129.954 14.4744H126.939L131.641 21.3064L126.911 28H129.899Z" fill="#0E0B3D"/>
</svg>
