<svg width="38" height="38" viewBox="0 0 38 38" fill="none" xmlns="http://www.w3.org/2000/svg">
<g clip-path="url(#clip0_1_54542)">
<path d="M10.6476 10.3408C12.1091 8.25357 14.9858 7.74633 17.0731 9.20779C19.1602 10.6692 19.6674 13.546 18.206 15.6332L9.38528 28.2304C7.92382 30.3175 5.04708 30.8249 2.9599 29.3635C0.872716 27.9019 0.365469 25.0252 1.82693 22.9381L10.6476 10.3408Z" fill="#ED5829"/>
<path d="M23.7023 10.4736C25.1638 8.3864 28.0405 7.87914 30.1277 9.3406C32.2148 10.8021 32.7222 13.6788 31.2606 15.766L22.44 28.3633C20.9784 30.4504 18.1018 30.9576 16.0146 29.4962C13.9274 28.0348 13.4202 25.1579 14.8816 23.0708L23.7023 10.4736Z" fill="#ED5829"/>
<path d="M31.7385 29.9048C34.2866 29.9048 36.352 27.8393 36.352 25.2913C36.352 22.7434 34.2866 20.6777 31.7385 20.6777C29.1905 20.6777 27.125 22.7434 27.125 25.2913C27.125 27.8393 29.1905 29.9048 31.7385 29.9048Z" fill="#ED5829"/>
</g>
<defs>
<clipPath id="clip0_1_54542">
<rect width="36.9082" height="36.9082" fill="white" transform="translate(0.21875 0.898438)"/>
</clipPath>
</defs>
</svg>
