<svg width="41" height="42" viewBox="0 0 41 42" fill="none" xmlns="http://www.w3.org/2000/svg">
<path d="M7.82041 7.7992C9.10497 8.83468 9.58711 8.75607 12.0012 8.59546L34.7565 7.24045C35.2386 7.24045 34.8374 6.76201 34.6773 6.68341L30.8959 3.97169C30.1727 3.41465 29.2067 2.77559 27.3574 2.9345L5.32535 4.53044C4.52293 4.60904 4.36107 5.00888 4.68135 5.3267L7.82041 7.7992ZM9.1859 13.062V36.8199C9.1859 38.0963 9.82818 38.5748 11.2763 38.4944L36.2838 37.0591C37.732 36.9805 37.8938 36.1023 37.8938 35.0651V11.4661C37.8938 10.4306 37.4926 9.87186 36.6058 9.95046L10.4722 11.4661C9.5079 11.5464 9.1859 12.0248 9.1859 13.0603V13.062ZM33.8731 14.335C34.0333 15.0527 33.8731 15.7703 33.1499 15.8523L31.9446 16.0916V33.6297C30.8976 34.1885 29.9334 34.508 29.1292 34.508C27.8412 34.508 27.5192 34.1082 26.5549 32.9138L18.6737 20.635V32.514L21.167 33.0744C21.167 33.0744 21.167 34.5097 19.1558 34.5097L13.6078 34.8276C13.4477 34.5097 13.6078 33.7118 14.1709 33.5529L15.6173 33.1547V17.4466L13.6112 17.2859C13.4494 16.5683 13.8523 15.5328 14.9767 15.4525L20.9277 15.0544L29.1309 27.4921V16.488L27.0388 16.2505C26.8787 15.3722 27.5209 14.7348 28.3251 14.6562L33.8731 14.335ZM3.476 2.37746L26.3948 0.70293C29.2084 0.463711 29.9334 0.622621 31.7018 1.89903L39.0182 7.00123C40.2236 7.8778 40.6265 8.11702 40.6265 9.07389V37.0591C40.6265 38.8123 39.9842 39.8512 37.7337 40.0084L11.1162 41.6043C9.42869 41.6846 8.62283 41.4454 7.73776 40.3279L2.34986 33.3905C1.38558 32.1141 0.984375 31.159 0.984375 30.0415V5.16608C0.984375 3.73247 1.62837 2.53467 3.476 2.37746V2.37746Z" fill="black"/>
</svg>
