<svg width="70" height="70" viewBox="0 0 70 70" fill="none" xmlns="http://www.w3.org/2000/svg">
<g clip-path="url(#clip0_34_69436)">
<g filter="url(#filter0_dd_34_69436)">
<path d="M34.9082 67.4609C53.3202 67.4609 68.2461 52.5351 68.2461 34.1231C68.2461 15.711 53.3202 0.785156 34.9082 0.785156C16.4962 0.785156 1.57031 15.711 1.57031 34.1231C1.57031 52.5351 16.4962 67.4609 34.9082 67.4609Z" fill="url(#paint0_linear_34_69436)"/>
<path d="M34.9074 67.2641C53.2111 67.2641 68.0492 52.426 68.0492 34.1223C68.0492 15.8186 53.2111 0.980469 34.9074 0.980469C16.6037 0.980469 1.76562 15.8186 1.76562 34.1223C1.76562 52.426 16.6037 67.2641 34.9074 67.2641Z" stroke="url(#paint1_linear_34_69436)" stroke-opacity="0.5" stroke-width="0.502255"/>
</g>
<g filter="url(#filter1_d_34_69436)">
<path d="M35.3023 41.1828C42.4505 41.1828 48.2453 35.388 48.2453 28.2398C48.2453 21.0916 42.4505 15.2969 35.3023 15.2969C28.1541 15.2969 22.3594 21.0916 22.3594 28.2398C22.3594 35.388 28.1541 41.1828 35.3023 41.1828Z" fill="white"/>
</g>
<path fill-rule="evenodd" clip-rule="evenodd" d="M11.7109 58.069C16.0376 50.2448 25.0477 44.8652 35.4615 44.8652C45.5598 44.8652 54.3383 49.924 58.806 57.365C52.7491 63.5925 44.2793 67.4609 34.9058 67.4609C25.8909 67.4609 17.7116 63.8827 11.7109 58.069Z" fill="white"/>
<g filter="url(#filter2_d_34_69436)">
<path d="M32.1641 32.5527C33.1743 33.7366 35.7653 35.3941 38.0472 32.5527" stroke="url(#paint2_linear_34_69436)" stroke-width="1.50677" stroke-linecap="round"/>
</g>
</g>
<defs>
<filter id="filter0_dd_34_69436" x="-6.0182" y="-1.78276" width="81.8489" height="81.8548" filterUnits="userSpaceOnUse" color-interpolation-filters="sRGB">
<feFlood flood-opacity="0" result="BackgroundImageFix"/>
<feColorMatrix in="SourceAlpha" type="matrix" values="0 0 0 0 0 0 0 0 0 0 0 0 0 0 0 0 0 0 127 0" result="hardAlpha"/>
<feOffset dy="1.00451"/>
<feGaussianBlur stdDeviation="1.00451"/>
<feComposite in2="hardAlpha" operator="out"/>
<feColorMatrix type="matrix" values="0 0 0 0 0.298039 0 0 0 0 0.454902 0 0 0 0 1 0 0 0 0.25 0"/>
<feBlend mode="normal" in2="BackgroundImageFix" result="effect1_dropShadow_34_69436"/>
<feColorMatrix in="SourceAlpha" type="matrix" values="0 0 0 0 0 0 0 0 0 0 0 0 0 0 0 0 0 0 127 0" result="hardAlpha"/>
<feOffset dy="5.02255"/>
<feGaussianBlur stdDeviation="3.76691"/>
<feComposite in2="hardAlpha" operator="out"/>
<feColorMatrix type="matrix" values="0 0 0 0 1 0 0 0 0 1 0 0 0 0 1 0 0 0 0.5 0"/>
<feBlend mode="normal" in2="effect1_dropShadow_34_69436" result="effect2_dropShadow_34_69436"/>
<feBlend mode="normal" in="SourceGraphic" in2="effect2_dropShadow_34_69436" result="shape"/>
</filter>
<filter id="filter1_d_34_69436" x="20.3504" y="14.2924" width="29.9009" height="29.9048" filterUnits="userSpaceOnUse" color-interpolation-filters="sRGB">
<feFlood flood-opacity="0" result="BackgroundImageFix"/>
<feColorMatrix in="SourceAlpha" type="matrix" values="0 0 0 0 0 0 0 0 0 0 0 0 0 0 0 0 0 0 127 0" result="hardAlpha"/>
<feOffset dy="1.00451"/>
<feGaussianBlur stdDeviation="1.00451"/>
<feComposite in2="hardAlpha" operator="out"/>
<feColorMatrix type="matrix" values="0 0 0 0 0.298039 0 0 0 0 0.454902 0 0 0 0 1 0 0 0 0.25 0"/>
<feBlend mode="normal" in2="BackgroundImageFix" result="effect1_dropShadow_34_69436"/>
<feBlend mode="normal" in="SourceGraphic" in2="effect1_dropShadow_34_69436" result="shape"/>
</filter>
<filter id="filter2_d_34_69436" x="29.9073" y="31.2966" width="10.3963" height="6.0897" filterUnits="userSpaceOnUse" color-interpolation-filters="sRGB">
<feFlood flood-opacity="0" result="BackgroundImageFix"/>
<feColorMatrix in="SourceAlpha" type="matrix" values="0 0 0 0 0 0 0 0 0 0 0 0 0 0 0 0 0 0 127 0" result="hardAlpha"/>
<feOffset dy="1.00451"/>
<feGaussianBlur stdDeviation="0.753383"/>
<feComposite in2="hardAlpha" operator="out"/>
<feColorMatrix type="matrix" values="0 0 0 0 0.47451 0 0 0 0 0.14902 0 0 0 0 1 0 0 0 0.25 0"/>
<feBlend mode="normal" in2="BackgroundImageFix" result="effect1_dropShadow_34_69436"/>
<feBlend mode="normal" in="SourceGraphic" in2="effect1_dropShadow_34_69436" result="shape"/>
</filter>
<linearGradient id="paint0_linear_34_69436" x1="18.6315" y1="7.45274" x2="49.6161" y2="70.4025" gradientUnits="userSpaceOnUse">
<stop stop-color="#D4B2FF" stop-opacity="0.1"/>
<stop offset="1" stop-color="#1751EF" stop-opacity="0.78"/>
</linearGradient>
<linearGradient id="paint1_linear_34_69436" x1="21.0166" y1="-1.43816" x2="47.3166" y2="73.7575" gradientUnits="userSpaceOnUse">
<stop offset="0.0260417" stop-color="#E4F9FF" stop-opacity="0.8"/>
<stop offset="1" stop-color="#70A9FF" stop-opacity="0.1"/>
</linearGradient>
<linearGradient id="paint2_linear_34_69436" x1="33.9469" y1="33.6626" x2="37.1593" y2="33.806" gradientUnits="userSpaceOnUse">
<stop stop-color="#70A9FF"/>
<stop offset="1" stop-color="#4C74FF"/>
</linearGradient>
<clipPath id="clip0_34_69436">
<rect width="69.8135" height="69.8135" fill="white"/>
</clipPath>
</defs>
</svg>
