<svg width="21" height="21" viewBox="0 0 21 21" fill="none" xmlns="http://www.w3.org/2000/svg">
<path d="M20.9088 9.10779H15.0598L20.1253 6.1832L19.0129 4.25587L13.9473 7.18045L16.8713 2.11531L14.9439 1.00222L12.02 6.06735V0.21875H9.79503V6.06791L6.86998 1.00222L4.94325 2.11475L7.86775 7.17989L2.80219 4.25587L1.6897 6.18264L6.75525 9.10723H0.90625V11.3323H6.7547L1.6897 14.2569L2.80219 16.1842L7.86719 13.2602L4.94269 18.3253L6.86998 19.4378L9.79447 14.3722V20.2213H12.0195V14.3727L14.9434 19.4378L16.8707 18.3253L13.9462 13.2596L19.0117 16.1842L20.1243 14.2569L15.0592 11.3328H20.9076V9.10779H20.9088ZM10.9075 13.2461C9.22984 13.2461 7.86998 11.8863 7.86998 10.2086C7.86998 8.53082 9.22984 7.17093 10.9075 7.17093C12.5852 7.17093 13.945 8.53082 13.945 10.2086C13.945 11.8863 12.5852 13.2461 10.9075 13.2461Z" fill="black"/>
</svg>
