<svg width="35" height="39" viewBox="0 0 35 39" fill="none" xmlns="http://www.w3.org/2000/svg">
<mask id="path-1-inside-1_1_54548" fill="white">
<path d="M26.3321 18.1253C26.5819 18.0918 26.8347 18.0918 27.0845 18.1253C27.2193 17.7984 27.242 17.2354 27.1209 16.623C26.9392 15.7124 26.697 15.1606 26.1929 15.2467C25.6887 15.3329 25.6691 15.9931 25.8507 16.9037C25.9522 17.4156 26.1323 17.8542 26.3336 18.1253H26.3321ZM22.0024 18.8462C22.3643 19.0136 22.5853 19.1236 22.6716 19.028C22.7276 18.9674 22.7109 18.8525 22.6262 18.7042C22.4475 18.3964 22.0812 18.0854 21.6921 17.9116C21.289 17.7354 20.8497 17.6715 20.4164 17.7263C19.9831 17.781 19.5705 17.9525 19.2184 18.2242C18.9762 18.4108 18.7491 18.6707 18.7794 18.827C18.7915 18.878 18.8263 18.9163 18.9111 18.9291C19.1109 18.953 19.8058 18.583 20.6066 18.5304C21.1728 18.4937 21.6421 18.6803 22.0024 18.8477V18.8462ZM21.2758 19.2831C20.8065 19.3629 20.5476 19.5255 20.3811 19.677C20.2388 19.8078 20.151 19.9529 20.151 20.055L20.1873 20.1459L20.2645 20.1778C20.3705 20.1778 20.6097 20.0757 20.6097 20.0757C21.0923 19.8838 21.6138 19.8267 22.1236 19.9099C22.3582 19.9386 22.4717 19.9545 22.5217 19.8684C22.5368 19.8445 22.5565 19.7903 22.5096 19.7089C22.3991 19.5207 21.9237 19.2034 21.2773 19.2847L21.2758 19.2831ZM24.8712 20.8875C25.1892 21.0533 25.5404 20.9879 25.6554 20.7439C25.7705 20.4968 25.604 20.1634 25.2845 19.9992C24.9666 19.8333 24.6154 19.8987 24.5003 20.1427C24.3853 20.3899 24.5518 20.7232 24.8712 20.8875ZM26.9225 18.9961C26.6637 18.9913 26.4472 19.2911 26.4426 19.6675C26.4366 20.0422 26.641 20.35 26.8998 20.3548C27.1587 20.3596 27.3752 20.0598 27.3813 19.685C27.3858 19.3102 27.1814 19.0024 26.9225 18.9961V18.9961ZM9.5069 25.7627C9.44331 25.6782 9.33734 25.7037 9.2344 25.7292C9.15537 25.7515 9.07399 25.7633 8.99218 25.7643C8.90575 25.7663 8.82018 25.7458 8.74307 25.7047C8.66596 25.6635 8.59968 25.6029 8.55013 25.5283C8.43204 25.3369 8.43961 25.0514 8.56829 24.7245L8.62885 24.5778C8.83776 24.0866 9.18596 23.2621 8.79537 22.4775C8.50168 21.8874 8.02178 21.5174 7.445 21.4409C7.1721 21.404 6.8948 21.4362 6.63603 21.5346C6.37726 21.6331 6.14445 21.795 5.95685 22.007C5.38309 22.6736 5.29378 23.5827 5.4058 23.9048C5.44668 24.0212 5.51026 24.0547 5.55568 24.0611C5.65408 24.0754 5.7979 24.0005 5.88873 23.7421L5.91447 23.6592C5.95383 23.5236 6.02952 23.2717 6.15214 23.0691C6.22692 22.9483 6.32358 22.8442 6.43658 22.7628C6.54959 22.6813 6.67673 22.6242 6.81073 22.5945C6.94473 22.5649 7.08296 22.5634 7.21751 22.5901C7.35206 22.6168 7.48029 22.6712 7.59487 22.7502C7.99756 23.0293 8.15198 23.5476 7.98091 24.0435C7.89159 24.3003 7.74777 24.7899 7.77956 25.1918C7.84466 26.0083 8.32002 26.3352 8.74542 26.3719C9.16022 26.3879 9.45088 26.1407 9.52355 25.9605C9.56897 25.8552 9.53112 25.7898 9.50841 25.7611V25.7627H9.5069ZM33.464 24.27C33.4489 24.211 33.3459 23.8139 33.2036 23.3355L32.916 22.5221C33.4837 21.6243 33.4928 20.8221 33.4186 20.3692C33.3368 19.8062 33.1158 19.3262 32.6677 18.8318C32.2211 18.3342 31.3052 17.8271 30.0184 17.4475L29.3447 17.2498C29.3417 17.2211 29.3099 15.5705 29.2797 14.8624C29.26 14.3521 29.2176 13.5515 28.9829 12.7653C28.7029 11.6983 28.2154 10.767 27.6053 10.1705C29.2857 8.33336 30.3348 6.30799 30.3318 4.57128C30.3273 1.23021 26.4396 0.217527 21.6482 2.31307L20.6339 2.76758C20.014 2.1251 19.3933 1.48347 18.7718 0.84268C13.3067 -4.18726 -3.77132 15.8464 1.68772 20.7136L2.88217 21.779C2.55942 22.6913 2.44531 23.6709 2.54912 24.6384C2.6778 25.978 3.33179 27.2602 4.39302 28.2522C5.39975 29.1931 6.72439 29.7911 8.00967 29.7895C10.1336 34.9566 14.9886 38.127 20.6808 38.3057C26.7878 38.497 31.9138 35.4733 34.0635 30.0415C34.2043 29.6588 34.7993 27.9412 34.7993 26.4261C34.7993 24.9015 33.9833 24.27 33.464 24.27V24.27ZM8.48049 28.3367C8.29352 28.3703 8.10391 28.3847 7.9143 28.3797C6.0704 28.3271 4.07813 26.5761 3.87981 24.4965C3.6603 22.2 4.773 20.433 6.74104 20.0151C7.01351 19.9579 7.29166 19.9365 7.56913 19.9513C8.67275 20.0151 10.2987 20.9082 10.6696 23.4455C10.9981 25.6909 10.4758 27.9795 8.48049 28.3383V28.3367ZM6.42161 18.6404C5.19537 18.8908 4.11447 19.6244 3.45441 20.6371C3.05929 20.2894 2.32355 19.6164 2.19335 19.3549C1.13818 17.2418 3.3439 13.1321 4.88503 10.8117C8.69546 5.07682 14.6571 0.73583 17.4199 1.52365C17.868 1.65761 19.3547 3.47566 19.3547 3.47566C19.3547 3.47566 16.5949 5.09117 14.0349 7.3446C10.5863 10.1466 7.98091 14.2197 6.4201 18.6404H6.42161ZM25.7796 27.4787C25.7999 27.469 25.8169 27.4529 25.8283 27.4326C25.8397 27.4124 25.8448 27.3889 25.8432 27.3655C25.8418 27.3514 25.8379 27.3378 25.8315 27.3253C25.8252 27.3129 25.8165 27.3019 25.8061 27.293C25.7957 27.2841 25.7837 27.2775 25.7708 27.2735C25.7579 27.2695 25.7445 27.2682 25.7311 27.2698C25.7311 27.2698 22.8426 27.7211 20.1131 26.6654C20.4098 25.6463 21.2001 26.0147 22.3961 26.1168C24.2533 26.2328 26.1159 26.0204 27.9066 25.4884C29.1419 25.1136 30.7648 24.3753 32.0273 23.3259C32.4512 24.3115 32.6026 25.3959 32.6026 25.3959C32.6026 25.3959 32.9311 25.3337 33.2067 25.5123C33.4655 25.6814 33.6563 26.0322 33.5261 26.9397C33.2612 28.6349 32.5784 30.0112 31.4309 31.2775C30.7141 32.0956 29.8608 32.7681 28.9133 33.2614C28.3863 33.554 27.8368 33.7994 27.2707 33.995C22.9441 35.4861 18.5145 33.8467 17.0869 30.327C16.9707 30.0577 16.8745 29.7794 16.7992 29.4945C16.1922 27.1741 16.7084 24.3912 18.3237 22.6385C18.4221 22.5269 18.5236 22.3945 18.5236 22.2303C18.5236 22.0915 18.4403 21.9464 18.3691 21.8427C17.8045 20.9784 15.847 19.5048 16.2406 16.6533C16.5222 14.604 18.2208 13.1624 19.8028 13.2485L20.204 13.2724C20.8897 13.3155 21.4877 13.408 22.0539 13.4335C22.9986 13.4765 23.8479 13.3314 24.8546 12.4463C25.1937 12.1481 25.4662 11.8881 25.9264 11.8068C25.9749 11.7988 26.0945 11.7526 26.3352 11.7653C26.5811 11.7752 26.8198 11.8557 27.0255 11.9982C27.8324 12.5643 27.9459 13.9358 27.9883 14.9405C28.0125 15.5147 28.0776 16.8989 28.1003 17.2976C28.1518 18.2066 28.3774 18.3342 28.8361 18.4937C29.0934 18.5846 29.3342 18.6516 29.6869 18.7553C30.7542 19.0726 31.387 19.3932 31.7866 19.8062C32.0258 20.063 32.1348 20.3373 32.1696 20.5988C32.2968 21.5684 31.4581 22.7661 29.2358 23.8538C26.806 25.0435 23.8615 25.3449 21.8253 25.1057L21.1123 25.0211C19.4834 24.7899 18.5553 27.0098 19.5318 28.5313C20.1616 29.512 21.8783 30.15 23.5935 30.15C27.5296 30.15 30.5543 28.3782 31.6791 26.8456L31.77 26.71C31.8245 26.6223 31.7791 26.5745 31.7094 26.6239C30.7905 27.2873 26.7076 29.9235 22.3385 29.1293C22.3385 29.1293 21.8087 29.0384 21.3242 28.839C20.9397 28.6812 20.1343 28.2904 20.0374 27.4181C23.5617 28.5679 25.7796 27.4803 25.7796 27.4803V27.4787ZM20.1964 26.7834L20.1979 26.785V26.7818L20.1964 26.7834ZM13.4536 10.7877C14.8085 9.13554 16.4753 7.70023 17.968 6.89487C18.0194 6.86776 18.0739 6.92677 18.0467 6.97939C17.9271 7.20585 17.6985 7.69226 17.6273 8.05906C17.6248 8.07144 17.6258 8.08434 17.6302 8.09613C17.6346 8.10791 17.6422 8.11804 17.6522 8.12523C17.6621 8.13241 17.6738 8.13633 17.6858 8.13647C17.6978 8.13662 17.7096 8.13299 17.7197 8.12604C18.6492 7.45783 20.2645 6.74177 21.683 6.65087C21.7436 6.64608 21.7738 6.72901 21.7239 6.76888C21.4908 6.95866 21.2803 7.18034 21.1017 7.42753C21.095 7.4369 21.0909 7.44802 21.0898 7.45968C21.0888 7.47134 21.0908 7.48309 21.0956 7.49363C21.1005 7.50417 21.108 7.51311 21.1173 7.51945C21.1267 7.52579 21.1375 7.5293 21.1486 7.52959C22.1432 7.53757 23.5466 7.90437 24.461 8.44659C24.5215 8.48327 24.4791 8.60926 24.4095 8.59331C23.0258 8.25841 20.7611 8.00324 18.4085 8.60926C16.3088 9.14989 14.7056 9.98396 13.5368 10.8818C13.4763 10.9281 13.4066 10.8451 13.4536 10.7861V10.7877Z"/>
</mask>
<path d="M26.3321 18.1253C26.5819 18.0918 26.8347 18.0918 27.0845 18.1253C27.2193 17.7984 27.242 17.2354 27.1209 16.623C26.9392 15.7124 26.697 15.1606 26.1929 15.2467C25.6887 15.3329 25.6691 15.9931 25.8507 16.9037C25.9522 17.4156 26.1323 17.8542 26.3336 18.1253H26.3321ZM22.0024 18.8462C22.3643 19.0136 22.5853 19.1236 22.6716 19.028C22.7276 18.9674 22.7109 18.8525 22.6262 18.7042C22.4475 18.3964 22.0812 18.0854 21.6921 17.9116C21.289 17.7354 20.8497 17.6715 20.4164 17.7263C19.9831 17.781 19.5705 17.9525 19.2184 18.2242C18.9762 18.4108 18.7491 18.6707 18.7794 18.827C18.7915 18.878 18.8263 18.9163 18.9111 18.9291C19.1109 18.953 19.8058 18.583 20.6066 18.5304C21.1728 18.4937 21.6421 18.6803 22.0024 18.8477V18.8462ZM21.2758 19.2831C20.8065 19.3629 20.5476 19.5255 20.3811 19.677C20.2388 19.8078 20.151 19.9529 20.151 20.055L20.1873 20.1459L20.2645 20.1778C20.3705 20.1778 20.6097 20.0757 20.6097 20.0757C21.0923 19.8838 21.6138 19.8267 22.1236 19.9099C22.3582 19.9386 22.4717 19.9545 22.5217 19.8684C22.5368 19.8445 22.5565 19.7903 22.5096 19.7089C22.3991 19.5207 21.9237 19.2034 21.2773 19.2847L21.2758 19.2831ZM24.8712 20.8875C25.1892 21.0533 25.5404 20.9879 25.6554 20.7439C25.7705 20.4968 25.604 20.1634 25.2845 19.9992C24.9666 19.8333 24.6154 19.8987 24.5003 20.1427C24.3853 20.3899 24.5518 20.7232 24.8712 20.8875ZM26.9225 18.9961C26.6637 18.9913 26.4472 19.2911 26.4426 19.6675C26.4366 20.0422 26.641 20.35 26.8998 20.3548C27.1587 20.3596 27.3752 20.0598 27.3813 19.685C27.3858 19.3102 27.1814 19.0024 26.9225 18.9961V18.9961ZM9.5069 25.7627C9.44331 25.6782 9.33734 25.7037 9.2344 25.7292C9.15537 25.7515 9.07399 25.7633 8.99218 25.7643C8.90575 25.7663 8.82018 25.7458 8.74307 25.7047C8.66596 25.6635 8.59968 25.6029 8.55013 25.5283C8.43204 25.3369 8.43961 25.0514 8.56829 24.7245L8.62885 24.5778C8.83776 24.0866 9.18596 23.2621 8.79537 22.4775C8.50168 21.8874 8.02178 21.5174 7.445 21.4409C7.1721 21.404 6.8948 21.4362 6.63603 21.5346C6.37726 21.6331 6.14445 21.795 5.95685 22.007C5.38309 22.6736 5.29378 23.5827 5.4058 23.9048C5.44668 24.0212 5.51026 24.0547 5.55568 24.0611C5.65408 24.0754 5.7979 24.0005 5.88873 23.7421L5.91447 23.6592C5.95383 23.5236 6.02952 23.2717 6.15214 23.0691C6.22692 22.9483 6.32358 22.8442 6.43658 22.7628C6.54959 22.6813 6.67673 22.6242 6.81073 22.5945C6.94473 22.5649 7.08296 22.5634 7.21751 22.5901C7.35206 22.6168 7.48029 22.6712 7.59487 22.7502C7.99756 23.0293 8.15198 23.5476 7.98091 24.0435C7.89159 24.3003 7.74777 24.7899 7.77956 25.1918C7.84466 26.0083 8.32002 26.3352 8.74542 26.3719C9.16022 26.3879 9.45088 26.1407 9.52355 25.9605C9.56897 25.8552 9.53112 25.7898 9.50841 25.7611V25.7627H9.5069ZM33.464 24.27C33.4489 24.211 33.3459 23.8139 33.2036 23.3355L32.916 22.5221C33.4837 21.6243 33.4928 20.8221 33.4186 20.3692C33.3368 19.8062 33.1158 19.3262 32.6677 18.8318C32.2211 18.3342 31.3052 17.8271 30.0184 17.4475L29.3447 17.2498C29.3417 17.2211 29.3099 15.5705 29.2797 14.8624C29.26 14.3521 29.2176 13.5515 28.9829 12.7653C28.7029 11.6983 28.2154 10.767 27.6053 10.1705C29.2857 8.33336 30.3348 6.30799 30.3318 4.57128C30.3273 1.23021 26.4396 0.217527 21.6482 2.31307L20.6339 2.76758C20.014 2.1251 19.3933 1.48347 18.7718 0.84268C13.3067 -4.18726 -3.77132 15.8464 1.68772 20.7136L2.88217 21.779C2.55942 22.6913 2.44531 23.6709 2.54912 24.6384C2.6778 25.978 3.33179 27.2602 4.39302 28.2522C5.39975 29.1931 6.72439 29.7911 8.00967 29.7895C10.1336 34.9566 14.9886 38.127 20.6808 38.3057C26.7878 38.497 31.9138 35.4733 34.0635 30.0415C34.2043 29.6588 34.7993 27.9412 34.7993 26.4261C34.7993 24.9015 33.9833 24.27 33.464 24.27V24.27ZM8.48049 28.3367C8.29352 28.3703 8.10391 28.3847 7.9143 28.3797C6.0704 28.3271 4.07813 26.5761 3.87981 24.4965C3.6603 22.2 4.773 20.433 6.74104 20.0151C7.01351 19.9579 7.29166 19.9365 7.56913 19.9513C8.67275 20.0151 10.2987 20.9082 10.6696 23.4455C10.9981 25.6909 10.4758 27.9795 8.48049 28.3383V28.3367ZM6.42161 18.6404C5.19537 18.8908 4.11447 19.6244 3.45441 20.6371C3.05929 20.2894 2.32355 19.6164 2.19335 19.3549C1.13818 17.2418 3.3439 13.1321 4.88503 10.8117C8.69546 5.07682 14.6571 0.73583 17.4199 1.52365C17.868 1.65761 19.3547 3.47566 19.3547 3.47566C19.3547 3.47566 16.5949 5.09117 14.0349 7.3446C10.5863 10.1466 7.98091 14.2197 6.4201 18.6404H6.42161ZM25.7796 27.4787C25.7999 27.469 25.8169 27.4529 25.8283 27.4326C25.8397 27.4124 25.8448 27.3889 25.8432 27.3655C25.8418 27.3514 25.8379 27.3378 25.8315 27.3253C25.8252 27.3129 25.8165 27.3019 25.8061 27.293C25.7957 27.2841 25.7837 27.2775 25.7708 27.2735C25.7579 27.2695 25.7445 27.2682 25.7311 27.2698C25.7311 27.2698 22.8426 27.7211 20.1131 26.6654C20.4098 25.6463 21.2001 26.0147 22.3961 26.1168C24.2533 26.2328 26.1159 26.0204 27.9066 25.4884C29.1419 25.1136 30.7648 24.3753 32.0273 23.3259C32.4512 24.3115 32.6026 25.3959 32.6026 25.3959C32.6026 25.3959 32.9311 25.3337 33.2067 25.5123C33.4655 25.6814 33.6563 26.0322 33.5261 26.9397C33.2612 28.6349 32.5784 30.0112 31.4309 31.2775C30.7141 32.0956 29.8608 32.7681 28.9133 33.2614C28.3863 33.554 27.8368 33.7994 27.2707 33.995C22.9441 35.4861 18.5145 33.8467 17.0869 30.327C16.9707 30.0577 16.8745 29.7794 16.7992 29.4945C16.1922 27.1741 16.7084 24.3912 18.3237 22.6385C18.4221 22.5269 18.5236 22.3945 18.5236 22.2303C18.5236 22.0915 18.4403 21.9464 18.3691 21.8427C17.8045 20.9784 15.847 19.5048 16.2406 16.6533C16.5222 14.604 18.2208 13.1624 19.8028 13.2485L20.204 13.2724C20.8897 13.3155 21.4877 13.408 22.0539 13.4335C22.9986 13.4765 23.8479 13.3314 24.8546 12.4463C25.1937 12.1481 25.4662 11.8881 25.9264 11.8068C25.9749 11.7988 26.0945 11.7526 26.3352 11.7653C26.5811 11.7752 26.8198 11.8557 27.0255 11.9982C27.8324 12.5643 27.9459 13.9358 27.9883 14.9405C28.0125 15.5147 28.0776 16.8989 28.1003 17.2976C28.1518 18.2066 28.3774 18.3342 28.8361 18.4937C29.0934 18.5846 29.3342 18.6516 29.6869 18.7553C30.7542 19.0726 31.387 19.3932 31.7866 19.8062C32.0258 20.063 32.1348 20.3373 32.1696 20.5988C32.2968 21.5684 31.4581 22.7661 29.2358 23.8538C26.806 25.0435 23.8615 25.3449 21.8253 25.1057L21.1123 25.0211C19.4834 24.7899 18.5553 27.0098 19.5318 28.5313C20.1616 29.512 21.8783 30.15 23.5935 30.15C27.5296 30.15 30.5543 28.3782 31.6791 26.8456L31.77 26.71C31.8245 26.6223 31.7791 26.5745 31.7094 26.6239C30.7905 27.2873 26.7076 29.9235 22.3385 29.1293C22.3385 29.1293 21.8087 29.0384 21.3242 28.839C20.9397 28.6812 20.1343 28.2904 20.0374 27.4181C23.5617 28.5679 25.7796 27.4803 25.7796 27.4803V27.4787ZM20.1964 26.7834L20.1979 26.785V26.7818L20.1964 26.7834ZM13.4536 10.7877C14.8085 9.13554 16.4753 7.70023 17.968 6.89487C18.0194 6.86776 18.0739 6.92677 18.0467 6.97939C17.9271 7.20585 17.6985 7.69226 17.6273 8.05906C17.6248 8.07144 17.6258 8.08434 17.6302 8.09613C17.6346 8.10791 17.6422 8.11804 17.6522 8.12523C17.6621 8.13241 17.6738 8.13633 17.6858 8.13647C17.6978 8.13662 17.7096 8.13299 17.7197 8.12604C18.6492 7.45783 20.2645 6.74177 21.683 6.65087C21.7436 6.64608 21.7738 6.72901 21.7239 6.76888C21.4908 6.95866 21.2803 7.18034 21.1017 7.42753C21.095 7.4369 21.0909 7.44802 21.0898 7.45968C21.0888 7.47134 21.0908 7.48309 21.0956 7.49363C21.1005 7.50417 21.108 7.51311 21.1173 7.51945C21.1267 7.52579 21.1375 7.5293 21.1486 7.52959C22.1432 7.53757 23.5466 7.90437 24.461 8.44659C24.5215 8.48327 24.4791 8.60926 24.4095 8.59331C23.0258 8.25841 20.7611 8.00324 18.4085 8.60926C16.3088 9.14989 14.7056 9.98396 13.5368 10.8818C13.4763 10.9281 13.4066 10.8451 13.4536 10.7861V10.7877Z" fill="white" stroke="#496D6C" stroke-width="1.92437" mask="url(#path-1-inside-1_1_54548)"/>
</svg>
