<svg width="25" height="17" viewBox="0 0 25 17" fill="none" xmlns="http://www.w3.org/2000/svg">
<path d="M16.29 11.4731L16.7583 11.519C16.8372 11.2708 17.3614 9.64039 17.8662 8.07106L18.5502 5.94489L18.7721 5.25535L18.8339 5.06322L18.8502 5.01271L18.8539 5.00111C19.7369 2.666 21.3873 0.537221 24.442 0.381107L19.7127 11.8783C19.7125 11.8787 19.7123 11.8792 19.7122 11.8796C19.2191 13.043 18.5208 14.1426 17.5333 14.9505C16.5904 15.7219 15.3733 16.2362 13.7913 16.2776L13.7581 16.0502L13.5903 14.899C13.4514 13.9453 13.2659 12.6714 13.0801 11.3904C12.8942 10.1093 12.7079 8.82127 12.5672 7.83934C12.4968 7.34834 12.4378 6.9341 12.3961 6.6356C12.3752 6.4863 12.3586 6.36631 12.3471 6.28028C12.3413 6.2372 12.3368 6.20314 12.3338 6.17838C12.3313 6.15894 12.3302 6.14877 12.3298 6.14489C12.3296 6.14313 12.3295 6.14266 12.3296 6.14322L11.8629 6.07757C11.8214 6.19399 11.2814 7.58118 10.7483 8.94765C10.4825 9.62902 10.2195 10.3028 10.0228 10.8063L9.78564 11.4135L9.71937 11.583L9.70194 11.6277L9.69747 11.6391L9.69645 11.6417L9.69634 11.642L9.69622 11.6423C8.75708 14.0058 7.00861 16.1751 3.81583 16.2766L1.16841 0.382005C3.26611 0.528112 5.70426 2.25742 5.88696 4.9946L5.88707 4.99671L5.88781 5.00961L5.89069 5.05997L5.90166 5.25159L5.94092 5.93909C5.97347 6.51009 6.01701 7.27629 6.06101 8.05713C6.14918 9.62196 6.23867 11.2373 6.24573 11.4678L6.71003 11.5484C6.81075 11.2922 7.45029 9.6535 8.06439 8.0795L8.89637 5.94685L9.16605 5.2555L9.24117 5.06288L9.26092 5.01226L9.26598 4.99929L9.26726 4.99601L9.26758 4.99519L9.26766 4.99498L9.04358 4.90751L9.26769 4.99492L9.26846 4.99291C10.1671 2.62653 11.8165 0.457338 14.8387 0.361063L14.872 0.614338L15.0339 1.84671C15.1681 2.86882 15.3477 4.23695 15.5291 5.62106C15.8922 8.39178 16.2616 11.2201 16.29 11.4731Z" fill="#FFC107" stroke="black" stroke-width="0.481091"/>
</svg>
