<svg width="29" height="29" viewBox="0 0 29 29" fill="none" xmlns="http://www.w3.org/2000/svg">
<path d="M28.1244 12.6798H19.9302L27.0268 8.58254L25.4683 5.88242L18.3717 9.97966L22.468 2.88357L19.7679 1.32418L15.6715 8.42025V0.226562H12.5544V8.42104L8.45654 1.32418L5.75726 2.88279L9.85438 9.97888L2.75772 5.88242L1.19915 8.58176L8.29582 12.679H0.101562V15.7962H8.29503L1.19915 19.8935L2.75772 22.5936L9.8536 18.4971L5.75648 25.5932L8.45654 27.1518L12.5537 20.055V28.2494H15.6708V20.0557L19.7671 27.1518L22.4671 25.5932L18.3701 18.4964L25.4667 22.5936L27.0253 19.8935L19.9294 15.797H28.1228V12.6798H28.1244ZM14.113 18.4775C11.7626 18.4775 9.85751 16.5724 9.85751 14.2219C9.85751 11.8715 11.7626 9.96633 14.113 9.96633C16.4634 9.96633 18.3684 11.8715 18.3684 14.2219C18.3684 16.5724 16.4634 18.4775 14.113 18.4775Z" fill="white"/>
</svg>
